/* XPM */
static char *_9b276e6f8f140f69282a7c2bd908a67Gr11oQMeXeeIpmsw[] = {
/* columns rows colors chars-per-pixel */
"64 64 140 2 ",
"   c #070000",
".  c #0A0201",
"X  c #0F0803",
"o  c #0F0A0A",
"O  c #110603",
"+  c #140A04",
"@  c #190D05",
"#  c #120B0A",
"$  c #1A0D08",
"%  c #1E1107",
"&  c #171010",
"*  c #1A1414",
"=  c #1F1818",
"-  c #201207",
";  c #241509",
":  c #2A170F",
">  c #271809",
",  c #2B1A0B",
"<  c #311F0C",
"1  c #2C1A10",
"2  c #231D1D",
"3  c #331E13",
"4  c #34210D",
"5  c #39250F",
"6  c #352015",
"7  c #3A2413",
"8  c #3E2910",
"9  c #3E261A",
"0  c #3E291D",
"q  c #272121",
"w  c #2B2525",
"e  c #322C2C",
"r  c #363030",
"t  c #3B3534",
"y  c #432D12",
"u  c #402719",
"i  c #432B1D",
"p  c #4B2E1E",
"a  c #473013",
"s  c #4B3214",
"d  c #4E301F",
"f  c #503716",
"g  c #543917",
"h  c #51311F",
"j  c #563B18",
"k  c #593D19",
"l  c #462E20",
"z  c #4B2E20",
"x  c #4E3121",
"c  c #47342A",
"v  c #523321",
"b  c #543322",
"n  c #533421",
"m  c #513423",
"M  c #553621",
"N  c #563723",
"B  c #533424",
"V  c #563624",
"C  c #593722",
"Z  c #583724",
"A  c #573825",
"S  c #5B3926",
"D  c #543729",
"F  c #553928",
"G  c #5A3928",
"H  c #5B3C2B",
"J  c #5D3D2B",
"K  c #5E3D2C",
"L  c #433F3F",
"P  c #5F3F30",
"I  c #5E411B",
"U  c #64451C",
"Y  c #67481D",
"T  c #6A4A1E",
"R  c #714E1F",
"E  c #5C402F",
"W  c #44403F",
"Q  c #5D4131",
"!  c #5D4638",
"~  c #714F20",
"^  c #755222",
"/  c #7A5623",
"(  c #7C5823",
")  c #7E5924",
"_  c #61473A",
"`  c #624A3A",
"'  c #4E4A4A",
"]  c #5F4D41",
"[  c #524C4A",
"{  c #5D5A5A",
"}  c #654F43",
"|  c #694F41",
" . c #655145",
".. c #695447",
"X. c #66564D",
"o. c #6D574C",
"O. c #6C594D",
"+. c #685950",
"@. c #625E5D",
"#. c #705F54",
"$. c #66605F",
"%. c #726157",
"&. c #71655E",
"*. c #646161",
"=. c #686665",
"-. c #756A63",
";. c #796D65",
":. c #716C6A",
">. c #796F6A",
",. c #7E746E",
"<. c #737171",
"1. c #7F7772",
"2. c #7A7877",
"3. c #7F7D7C",
"4. c #825B25",
"5. c #896127",
"6. c #876028",
"7. c #8D6429",
"8. c #91672A",
"9. c #966B2B",
"0. c #996E2D",
"q. c #9C6F2F",
"w. c #9E712E",
"e. c #9F7130",
"r. c #A1732F",
"t. c #A57631",
"y. c #A77832",
"u. c #AB7A33",
"i. c #B07F34",
"p. c #817670",
"a. c #827A75",
"s. c #837E7C",
"d. c #B58236",
"f. c #B88537",
"g. c #BE8939",
"h. c #C58E3B",
"j. c #86817E",
"k. c #868482",
"l. c #898684",
"z. c #8D8C8B",
/* pixels */
"n M M M V V V V V V V V V V V V V V V V V V V V V V V V V V V V V V V V V V V V V V M M M n v v b b b M M p i p v V V M M M V V ",
"i p d n M M V V V V V V V V V V V V V M n n n B n M M M V V V V V V V V V V V V V V V V M M M M M M C C S x i p v M M V V V V V ",
"p x n M M M V V V V V V V V V V V V V n x z x x B V V M V V V V V V V V V V V V V V V V V V V V V V M V G x i p v M M V V V V M ",
"M M M M M M V V V V V V V V V V V V M V B M J K J J S M M V V V V V M M V V V V V V V V V V V V V V n v x i i h M M V V M V n v ",
"M M M M M M M M V V V M V V V V V V V V V V V V A A V V V V V V M M M M M V V V M V V V V V V V M M M M V z p n M M M M M n d i ",
"M M V V V M M v v M M M V V V V V V V A V V V V V V V V V V V V V M M v v v M M M M V V V V V M M M M S K B z v M M M M M M x i ",
"n M V V V V M v v b M M M V V V V V V V V V V V V V A V V V V V M M b v v v b M M M V V V V V n x d x x D x d n M M V V V V V V ",
"M M M V V Z Z V V V Z Z V V V V V V V V M M M M V V A V V V V V V Z V V V V V V V V V V V V V V v x x x z i x M V M V Z Z Z V Z ",
"v v M V M M M M M M M M M M M M M M M M v v M M M M M M M M M M M M M M M M M M V S S S S J J J J K K K V i i x n M M M M M M M ",
"z z x x x x x x x x x x x x d d d x p p p i z p p p d p x d x x x x x x x x x x v B n B V S G G G G G G B i i i z x x x x x x x ",
"v v n n n n n n v v v v v v h h h d p p p i i i i p p p p p v v v v v v v v v v v v n n n M M M M M M V n x x x v n n n n n n n ",
"V V V V V V V V M M M M M M M M M M v v h i 9 6 6 6 9 9 9 u u u u u u u u u u u u u x M V V V V V V V V V V V V V V V V V V V V ",
"V V V V V V M n v M M M M M M M M M M M b p 3 $ O + + + + + + + + + + + + + + + + $ u n V V V V V V V V V V V V V V V V V V V V ",
"V V V V V M x i i i z x v v v v v v v v v i 1 O                                   O 6 x v v v v v v v n M V V V V V V V V V V M ",
"V V V V V n x p i i i p p 6 1 1 1 1 1 1 1 : $ .                                     - 1 1 1 1 1 1 1 1 6 x V V V V V V V V M M M ",
"V V V V V V V M v v x v x ; X . . . . . .                                             . . . . . . . X - p M M V V V V V M M v h ",
"V V V V V V V V V n p i u $                 O - ; ; > , > +     $ > , , , , > ; ; - O                 $ 9 i p n M M M v v p p p ",
"V V V V V V V V M p : $ + X                 > T ( 4.9.0.5.5 . O k 9.q.q.q.q.9.4.) R ,                 . @ $ ; p b b v p p i i p ",
"V V V V V V M n v i $     X X X X X X X X + 5 5.q.r.d.f.y.y . + Y d.g.g.h.h.f.y.w.7.8 + X X X X X X X X     + u v v v h p p p x ",
"Z Z Z Z Z V x 6 3 1 O   X 4 y a f j k k k k T 9.w.9.) ^ Y ,   X y ~ ^ 6.u.d.d.i.u.y.^ k k k k j f a y 5 O   O 1 3 6 p M M M M V ",
"n n n n n v u + X .     + U 8.9.y.d.f.f.f.f.i.r.w.4.< @ + .     X + @ 8 7.r.y.f.h.h.g.f.f.f.f.f.y.9.8.Y $     . X + 9 v n M M n ",
"x x x p p i 3 O     O O - ^ w.y.d.h.h.h.h.h.d.0.8./ , + O + + + + + @ 8 7.r.y.g.h.h.h.h.h.h.h.h.f.y.w.^ ; + O     O 3 i p p p p ",
"M M v u : : $     @ s U Y 0.d.f.g.h.h.h.h.h.e.j y s k U U ~ / / / / / 5.u.d.f.h.h.h.h.h.h.h.h.h.g.f.d.w.T U f @     $ : : 9 d v ",
"V V n 6 O         ; / 9.w.d.h.h.h.h.h.h.h.h.7.> + > / 9.0.i.g.g.g.g.g.g.h.h.h.h.h.h.h.h.h.h.h.h.h.h.h.f.w.0.) ;         O 3 v b ",
"V V n 6 X         ; ) w.r.f.h.h.h.h.h.h.h.h.9.y > 5 Y / ) 8.0.0.0.0.0.0.0.0.t.f.h.h.h.h.h.h.h.h.h.h.h.f.y.w.4.>         X 3 v M ",
"V V n 6 X         ; ) w.r.f.h.h.h.h.h.h.h.h.d.7.4.~ 5 ; ; > > > > > > > > > s t.h.h.h.h.h.h.h.h.h.h.h.f.y.w.4.>         X 3 n V ",
"V V n 6 X         ; ^ 9.q.d.h.h.h.h.h.h.h.h.f.y.w.4., O O .     X O + + + @ 5 w.h.h.h.h.h.h.h.h.h.h.h.f.w.9.) ;         X 3 n V ",
"V V n 6 X         + y g I 9.i.d.g.h.h.h.h.h.g.d.i.w.U f y %   X , s f g U U ^ u.h.h.h.h.h.h.h.h.g.d.i.9.U g a @         X 3 n M ",
"V V n 6 X           X O % ~ q.r.d.h.h.h.h.h.h.h.h.f.w.9.4.5 X O j 8.9.r.d.f.g.h.h.h.h.h.h.h.h.h.d.r.w.^ ; O X           . 3 v M ",
"V V n 6 X           + @ ; U 4.5.0.y.y.y.y.y.u.g.g.f.y.w.7.s ; > U 0.w.y.f.h.h.h.h.g.u.y.y.y.y.y.0.5.4.U > @ +           . 1 x x ",
"V V n 6 .         @ a k j 8 , , 5 5 7 7 7 7 k 0.y.y.r.w.0.4./ / 7.w.w.r.y.y.y.y.y.w.I 7 7 7 7 5 5 , , 5 g k s @         . 3 v n ",
"V V n 6 # . .     % k ~ Y , X X X X X X X + 5 4.0.0.0.0.0.0.9.9.0.0.0.0.0.0.0.0.0.7.8 + X X X O X X O > U ~ I %     . . # 6 v V ",
"v v v c t t w X   + 8 s s 5 4 4 5 8 8 8 8 y s U U U U U U U U U U U U U U U U U U U s y 8 8 8 8 5 4 4 5 s s y +   X w t t c x x ",
"v v B X.s.k.@.&     X O @ f T ~ 4.7.8.8.8.7.Y ; + + + + + + + + + + + + + + + + + - Y 7.8.8.8.8.4.^ Y g % O X     & { k.s.X.B v ",
"M M F O.j.l.=.2 & #     O s Y T ) 7.7.7.7.5.Y ; + + + @ @ @ @ @ @ @ @ @ @ @ + + + - U 7.7.7.7.7.4.T Y s +     # & 2 @.k.j.O.A M ",
"V V A ! ..o.+.@.@.[ *   . - , , 5 7 8 8 8 8 y s f g U Y Y Y Y Y Y Y Y Y Y Y U j f s y 8 8 8 8 8 5 < , - X   & ' @.@.X. . .Q M M ",
"V V V A S H  .k.z.<.q .           X X X X X > U ^ / 8.0.0.0.0.0.0.0.0.0.0.0.8./ ^ Y , X X X X X             2 :.z.k. .x x M V M ",
"V V V V V A ` p.s.:.t 2 2 #                 - g U U / 4.4.4.4.4.4.4.4.4.4.4./ Y U k ;                 o = 2 e :.s.1.] l p M M M ",
"V V V V V V H _ `  .:.<.=.w .               X $ - - ; > > > > > > > > > > > ; - - % X                 q *.<.:. ._ ! c i d n M M ",
"V V V V V V V A S _ a.z.3.r # o X X X X X X X                                       . X X X X X X X o e 2.z.s._ A n p 0 p n M M ",
"V V V V V V V V V Q #.-.&.[ W L L L L L L L e #                                   X e L L L L L L L W [ &.-.%.Q M M p 0 i n M M ",
"V V V V V V V V V A H H ! >.k.l.l.l.l.l.l.k.@.*                                   # { k.l.l.l.l.l.l.k.,._ H H A V M d 0 i v M V ",
"M M M M M M M M M M M M H ;.k.l.l.l.l.l.l.k.=.w * & * * * * * * * * * * * * * * * 2 $.k.l.l.l.l.l.l.l.;.Q M M S S H V 0 i p v M ",
"b b b b b b v v v n v v B ! } }  . .} } }  .X.*.=.=.=.=.=.=.=.=.=.=.=.=.=.=.=.=.=.=.X. .}  . . . . .} _ V b b S K K F i i p v v ",
"v v v v v v v v V V G F z i z x x v v B B V } j.z.z.z.z.z.z.z.z.z.z.z.z.z.z.z.z.z.l.o.P G G H V V V V B v v v v n n v x x v v v ",
"M M M M M M M V S S H G x 0 i p n n M M M A _ ;.,.,.,.,.,.,.,.,.,.,.,.,.p.p.p.p.p.,.| K S S G V M M M M M M M M M V M M M V M M ",
"V V V V V V V V V V V V x 0 i x M V V V V V S H E Q Q Q Q Q Q Q Q Q Q Q Q Q Q Q Q E G A V M V M M M V V M M M M V M M V V V V V ",
"M M M M V V V V V V M M z i z x n n n n M V V V V V V V V V V V V V V V V V V V V V V V V M M x z l l l l l l x n M M V V V V V ",
"v h v M M V V V V V M n i 0 0 i i l z x v M V V V V V V V V V M M M M V V V V V V V V V V V M v x l i i i i p v n M V V M M M M ",
"h v v M M V V V M M v x i 0 i i x n M M M M V V V V V V V M M M M M M V V V V V V V V V V V V M M M n n n M M M M V V V V M M M ",
"n M M M V V V V M x i z i i p n V V M V M V V V V V V V M M n v v M M V V V V V V V V V V V V V V V M M V V V V V V V V V V M M ",
"V V V V V V V V M n n A x i d v M M M M V V V V V V V V V M M M M M V V V V V V V V V V V V V V V V V V V V V V V V V V V V V V ",
"V V V V V V V M M M M A x i l p x v M M M V V V V V V V V V V V V V V V V V V V V V V V V V V V V V V V V V V V V V V V V V V V ",
"V V V V V V M M M v M V x i p x v n M M M M V V V V V V V M M M M M V V V V V V V V V V M M M n M M M V V M M M M M M M M M M M ",
"n n M M M M n v v x d p i i v M M M V M M M M M M M V M M M M M M M M V M M M M M M M v v v p p d p v v M M M M M V V M M M M M ",
"v x z p p p p p p p i i 0 i x v v v v x x d z p p p p d x v v v v v v x d d p p p h x z z z z z z p p z z v v v v v v v v v v v ",
"K x i p p p z p v v x x x v n n n n v x x z i p i i i z x v v n n n v x d x z p z v n v V J D H G Z M v v n n n n n n n n n n n ",
"G x p p x v v M M V M M M M M M M V V V n n n v x x n n M V V V V V M M M M M n n M M V B A B G S V V V V V V V V V V V V V V V ",
"x l z v n M M V V V V V V V V V V V V V V M V M M M V V V V V V V V V V V V V V V V M v x x l v M M M V V V V V V V V V V V V V ",
"F x x M M M M V V V V V V V V V V V V V V V V M M M M V V V V V V V M M M n M M M V M M n B l p d v v n n M M M M M M M V V V V ",
"x x x v M M M M V V V V V V V V V V V V V V V V V V V V V V A A V V M v h h v M M V M M M M i i i i i z p z x x n x x n V V V V ",
"H x x M M V V M V V M M M n v n M M M V V V V V V V V V V V V V V V M M M M M M M M M M M h i l i i l F n x x x n v x B M V V V ",
"J x x V V V V V V V V M M x z x n V V V V V V V Z V V V V V V V V V V V V V V V V V M M n d x H V v V S Z V V V M V V V V V V V ",
"G x x V M M Z M V V V V M M M M M V V V V V V V V V V V V V V V V V V V V M M M V V M n v x x S Z M Z V V V V V V V Z V V V V V "
};
