/* XPM */
static char *_7ff8c471b194f3bcf5f7a81e1aeddf9wb1QVOrH1zxf7zxs[] = {
/* columns rows colors chars-per-pixel */
"64 64 173 2 ",
"   c #070101",
".  c #0A0303",
"X  c #0F0806",
"o  c #0F0908",
"O  c #110706",
"+  c #130907",
"@  c #140B0A",
"#  c #1A0E0D",
"$  c #17100E",
"%  c #1C110E",
"&  c #1A0F10",
"*  c #1D1212",
"=  c #22140E",
"-  c #221514",
";  c #2A1616",
":  c #251812",
">  c #2A1A13",
",  c #261718",
"<  c #291B1B",
"1  c #311E15",
"2  c #321D1D",
"3  c #352016",
"4  c #33211D",
"5  c #3B251A",
"6  c #3E281C",
"7  c #2D2121",
"8  c #342222",
"9  c #3B2525",
"0  c #392827",
"q  c #372929",
"w  c #3C2C2B",
"e  c #3F302F",
"r  c #3E3130",
"t  c #41271A",
"y  c #442B1E",
"u  c #4B2E1E",
"i  c #4D301F",
"p  c #51311F",
"a  c #402523",
"s  c #452D21",
"d  c #4A2E20",
"f  c #432C2C",
"g  c #4C2D2C",
"h  c #4E3121",
"j  c #553623",
"k  c #583724",
"l  c #563826",
"z  c #5A3927",
"x  c #54352A",
"c  c #553829",
"v  c #5C3B2A",
"b  c #443333",
"n  c #4D3535",
"m  c #4C3837",
"M  c #4B3738",
"N  c #4B3B3B",
"B  c #543534",
"V  c #5A3635",
"C  c #5E3937",
"Z  c #543C3C",
"A  c #583E3F",
"S  c #623A39",
"D  c #693F3E",
"F  c #4E403F",
"G  c #5E3F40",
"H  c #544443",
"J  c #5C4443",
"K  c #5B4A49",
"L  c #644545",
"P  c #6A4443",
"I  c #6E4947",
"U  c #654C4B",
"Y  c #724747",
"T  c #774C4C",
"R  c #6E504F",
"E  c #645453",
"W  c #6A5656",
"Q  c #6D5A5B",
"!  c #735453",
"~  c #755C5A",
"^  c #785859",
"/  c #7D5D5D",
"(  c #776362",
")  c #786666",
"_  c #7D6B6B",
"`  c #835352",
"'  c #895754",
"]  c #835A59",
"[  c #8A5B5A",
"{  c #925E5C",
"}  c #8F605F",
"|  c #94615F",
" . c #836564",
".. c #896766",
"X. c #856C6C",
"o. c #8B6C6B",
"O. c #946362",
"+. c #9B6563",
"@. c #946E6D",
"#. c #996E6E",
"$. c #95706E",
"%. c #8A7473",
"&. c #8C7978",
"*. c #937575",
"=. c #957D7C",
"-. c #9C7A7A",
";. c #A26C6B",
":. c #A27373",
">. c #AC7775",
",. c #A27C7C",
"<. c #AE7C7B",
"1. c #B17877",
"2. c #B37B7B",
"3. c #B97E7E",
"4. c #968180",
"5. c #9B8281",
"6. c #A98483",
"7. c #A38A87",
"8. c #A48C8C",
"9. c #AC8C8C",
"0. c #B38382",
"q. c #BB8483",
"w. c #B88987",
"e. c #B58B8B",
"r. c #BB8D8D",
"t. c #BC908F",
"y. c #AE9494",
"u. c #AF9897",
"i. c #AF9798",
"p. c #B49191",
"a. c #BD9594",
"s. c #BF9897",
"d. c #B39B9B",
"f. c #BB9D9D",
"g. c #BDA2A2",
"h. c #C18786",
"j. c #C28F8E",
"k. c #C3908F",
"l. c #C29494",
"z. c #C59594",
"x. c #C29897",
"c. c #CB9897",
"v. c #C59B9A",
"b. c #CC9D9D",
"n. c #D09F9E",
"m. c #C1A29F",
"M. c #D1A09F",
"N. c #C2A4A3",
"B. c #CCA3A2",
"V. c #C6A8A7",
"C. c #C6A9A9",
"Z. c #CCADAC",
"A. c #D1A4A3",
"S. c #D5ACAB",
"D. c #D8AEAE",
"F. c #D5B0AF",
"G. c #D9B1AF",
"H. c #CDB2B0",
"J. c #D5B4B3",
"K. c #DAB4B3",
"L. c #D9B6B6",
"P. c #DCB8B7",
"I. c #D6BAB9",
"U. c #DDBDBC",
"Y. c #E0BFBD",
"T. c #DFC0BF",
"R. c #E0C0BE",
"E. c #E0BFC0",
"W. c #DFC2C1",
"Q. c #E1C3C2",
"!. c #E2C3C3",
"~. c #E3C5C5",
"^. c #E4C6C5",
/* pixels */
"j j j j j j j j j j j j j j k k k j j j j j j j j j j j j j j j j j j j j j j j j j j j j j j j j j j j j u y u j j j j j j j j ",
"y u i j j j j j j j j j j j k k k k j j j j j j j j j j j j j j j j j j j j j j j j j j j j j j j j k k z h y u j j j j j j j j ",
"u h j j j j j j j j j j j j j k j j j j h d h h h d u u u y y y y y y u u h j j j k j k j j j j j j j j v h y u j j j j j j j j ",
"j j j j j j j j j j j j j j k k j j j j x j x s @ . . . . . . . . . . . . X % t h j k k j j j j j j j j h y y p j j j j j j j j ",
"j j j j j j j j j j j j j j j j j j j j y > + X . . . . . . . . . . . . . . . X + 1 h j j j j j j j j j j d u j j j j j j j i t ",
"j j j j j j j j j j j j j j j j j j h 3 + . . . @ # # # # # # # # # # # # # + . . . # t h j j j j j j z v x d j j j j j j j h y ",
"j j j j j j j j j j j j j j j j y % o . . . X - J ^ ^ ^ ^ ^ ^ ^ ^ ^ ^ ^ ^ ! n & . . . . + > h j h i h h x h i j j j j j j j j j ",
"j j j j j k k j j j k k j j j y % .   X # , 7 Z -.a.l.l.l.l.l.l.l.l.l.l.l.r...b , - @ .   . > h j h h h d t h j j j j k k k j k ",
"j j j j j j j j j j j j j j 5 @       * Z ..=.9.C.L.L.L.L.L.L.L.L.L.L.L.L.J.m.7.*./ f X   . . % h v v v j y y h j j j j j j j j ",
"d d h h h h h h h h h h h 5 + X - 0 e H *.B.J.U.W.Q.Q.Q.Q.Q.Q.Q.Q.Q.Q.Q.Q.Q.Q.I.S.s. .M w 8 # . % d v v x t t y d h h h h h h h ",
"j j j j j j j j j j j j 5 @ . @ n o.5.y.V.U.Q.^.~.~.~.~.^.^.~.~.~.~.~.~.~.^.^.^.T.L.N.8.-./ 8 X . @ y j j h h h j j j j j j j j ",
"j j j j j j j j j j j 5 @ . - b ..v.J.T.Q.~.~.~.~.~.~.~.^.^.^.^.^.^.^.^.^.^.^.^.~.~.Q.U.F.p.! 0 @ . $ t j j j j j j j j j j j j ",
"j j j j j j j j j j u @ . + n ..s.L.R.Q.~.~.~.~.~.^.~.~.^.^.^.^.^.^.^.^.^.^.^.~.~.~.~.Q.U.S.e.^ 2 X . % h j j j j j j j j j j j ",
"j j j j j j h y y 5 #   % b ..s.P.Q.~.~.~.~.~.~.~.^.^.^.^.^.^.^.^.^.^.^.^.^.^.~.~.~.~.~.~.R.K.e.! 0 +   - i j j j j j j j j j j ",
"j j j j j j h u t #     0 @.v.J.Q.Q.~.~.~.^.^.^.^.^.^.^.^.^.^.^.^.^.^.^.^.^.^.^.^.~.~.~.~.Q.R.S.a.! *   . > j j j j j j j j j j ",
"j j j j j j j j u +     b 9.P.Q.~.~.~.~.^.^.^.^.^.^.^.^.^.^.^.^.^.^.^.^.^.^.^.^.^.^.^.~.~.~.^.U.K.o.-   . % j j j j j j j j j p ",
"j j j j j j j j 3 . X & H f.Q.Q.~.~.~.^.^.^.^.^.^.^.^.^.^.^.^.^.^.^.^.^.^.^.^.^.^.^.^.^.^.~.~.Q.Q.5.w # . + t j j j j j j u u u ",
"j j j j j j j t +   , L *.H.^.~.~.~.^.^.^.^.^.^.^.^.^.^.^.^.^.^.^.^.^.^.^.^.^.^.^.^.^.^.^.~.~.~.~.f. .n @   % u j j j u y t t u ",
"j j j j j j j > . . 0 ,.B.U.~.~.~.~.^.^.^.^.^.^.^.^.^.^.^.^.^.^.^.^.^.^.^.^.^.^.^.^.^.^.^.~.~.~.~.J.x./ - . . 3 j j j p u u u h ",
"k k k k k k j % . . b y.J.Q.~.~.^.^.^.^.^.^.^.^.^.^.^.^.^.^.^.^.^.^.^.^.^.^.^.^.^.^.^.^.^.^.~.~.~.E.S.o.< . . > j j j j j j j j ",
"j j j j j j u + X * H g.U.~.~.~.^.^.^.^.^.^.^.^.^.^.^.^.^.^.^.^.^.^.^.^.^.^.^.^.^.^.^.^.^.^.~.~.~.~.I.5.w # . = u j j j j j j j ",
"h h h h u u % . - U -.J.Q.~.~.^.^.^.^.^.^.^.^.^.^.^.^.^.^.^.^.^.^.^.^.^.^.^.^.^.^.^.^.^.^.^.^.^.~.~.T.N...Z @ . % u d u i u u u ",
"j j j j j y . . 8 o.v.U.Q.~.~.^.^.^.^.^.^.^.^.^.^.^.^.^.^.^.^.^.^.^.^.^.^.^.^.^.^.^.^.^.^.^.^.^.~.^.Q.K.e.! *   + i j j j j p j ",
"j j j j j t . . 8 @.b.U.~.~.~.^.^.^.^.^.^.^.^.^.^.^.^.^.^.^.^.^.^.^.^.^.^.^.^.^.^.^.^.^.^.^.^.^.~.~.Q.K.r.^ -   O h j j j j j j ",
"j j j j j t . . 4 @.b.U.Q.~.~.^.^.^.^.^.^.^.^.^.^.^.^.^.^.^.^.^.^.^.^.^.^.^.^.^.^.^.^.^.^.^.^.^.~.^.Q.K.r.^ - . + i j j j j j j ",
"j j j j j 6 . . 4 @.b.U.Q.~.~.~.^.^.^.^.^.^.^.^.^.^.^.^.^.^.^.^.^.^.^.^.^.^.^.^.^.^.^.^.^.^.^.~.~.^.Q.K.r.^ - . O i j j j j j j ",
"j j j j j t . . 4 @.b.U.Q.~.~.~.^.^.^.^.^.^.^.^.^.^.^.^.^.^.^.^.^.^.^.^.^.^.^.^.^.^.^.^.^.^.^.~.~.^.Q.L.r.^ * . + h j j j j j j ",
"j j j j j t . . 4 @.v.P.Q.~.~.~.^.^.^.^.^.^.^.^.^.^.^.^.^.^.^.^.^.^.^.^.^.^.^.^.^.^.^.^.^.^.^.~.^.Q.Y.K.e.! *   O i j j j j j j ",
"j j j j j y . . 2 [ q.A.K.Q.~.~.~.~.^.^.^.^.^.^.^.^.^.^.^.^.^.^.^.^.^.^.^.^.^.^.^.^.^.^.^.^.~.~.^.U.D.b.<.I &   + j j j j j j j ",
"j j j j j h + . ; Y ;.z.S.U.~.^.~.^.^.^.^.^.^.^.^.^.^.^.^.^.^.^.^.^.^.^.^.^.^.^.^.^.^.^.^.~.~.~.^.P.A.q.| V # . % j j h d h h h ",
"j j j j j j y + @ 2 P 0.A.U.~.~.~.~.^.^.^.^.^.^.^.^.^.^.^.^.^.^.^.^.^.^.^.^.^.^.^.^.^.^.~.~.~.~.~.P.b.#.B ; X # y j j j j j j j ",
"j j j j j j j # . X f :.c.K.R.Q.~.^.^.^.^.^.^.^.^.^.^.^.^.^.^.^.^.^.^.^.^.^.^.^.^.^.^.~.~.~.~.Q.U.S.j.] < X   > j j j j j j j j ",
"j j j j j j j - . . 8 +.h.A.K.R.~.^.^.^.^.^.^.^.^.^.^.^.^.^.^.^.^.^.^.^.^.^.^.^.^.^.^.^.~.^.^.U.D.c.3.T -   . 1 j j i h i h i i ",
"j j j j j h j 6 + . ; D O.j.D.U.~.~.~.~.^.^.^.^.^.^.^.^.^.^.^.^.^.^.^.^.^.^.^.^.^.^.^.~.~.~.^.U.A.0.' x # . @ t u u u y u u i j ",
"j j j j j j j j 3 . + ; L 0.S.U.~.~.~.~.~.^.^.^.^.^.^.^.^.^.^.^.^.^.^.^.^.^.^.^.^.^.~.~.~.~.Q.P.A.#.g - X + 5 j p p u y u p j j ",
"j j j j j j j j h @     w :.n.K.U.Q.^.~.~.~.^.^.^.^.^.^.^.^.^.^.^.^.^.^.^.^.^.^.^.~.~.~.~.Q.U.S.c.] -     = j j j j u y i j j j ",
"j j j j j j k k j = .   4 [ q.c.D.U.Q.~.~.~.~.^.^.^.^.^.^.^.^.^.^.^.^.^.^.^.^.~.~.~.~.~.Q.U.S.k.1.I #     > j j j j h y u j j j ",
"j j j j j j k k j t @   - C O.q.n.K.U.~.~.~.~.~.~.^.^.^.^.^.^.^.^.^.^.^.^.^.~.~.~.~.~.Q.U.D.c.>.' g @   @ t j j j j h y u j j j ",
"j j j j j k k k j j y + . % V { q.b.D.Y.Q.Q.Q.^.~.~.~.~.~.^.^.^.^.~.~.~.~.~.~.~.Q.Q.R.U.S.z.1.` a # . # y j j j j i y t i j j j ",
"j j j j j j k k j j j 3 + . ; C O.q.b.D.K.L.T.^.~.~.~.~.~.^.^.^.^.~.~.~.~.~.~.~.U.K.K.S.c.2.` g # . + 6 j j j j j j y 6 u j j j ",
"j j j j j j j j j j j j 5 X . # V +.2.r.z.M.P.Q.Q.Q.~.~.~.~.~.~.~.~.~.~.Q.Q.W.U.F.c.l.w.>.[ a @ . + t j j j j j j j u 6 y j j j ",
"j j j j j j j j j j j j j 5 o X ; f B L O.h.b.S.S.L.R.Q.Q.Q.Q.Q.Q.Q.~.Q.U.K.S.A.c.2.[ A B 9 # . + 6 j j j j j j j j i 6 t j j j ",
"j j j j j j j j j j j j j j 5 O       # S ;.<.r.z.A.P.Y.R.R.R.R.R.R.Y.U.K.b.k.w.>.{ g X       + y j j j j j j z z v j 6 t u j j ",
"j j j j j j j j j j j j h h h t @     O ; a n L ;.w.b.B.A.A.A.A.A.A.B.B.c.q.} G f 9 - . . . - d j j j j j j j z v v l t y u j j ",
"j j j j j j j j j j v l d t y u 6 @ . . . . O ; P [ @.@.@.@.@.@.@.@.@.@.O.` B - . . . . X - x j j j j j j j j j x j j h h j j j ",
"j j j j j j j j z z v v h 6 y u j y = . . X o @ ; 2 8 8 8 8 8 8 8 8 8 8 8 2 - + X X . . > j v j j j j j j j j j j j j j j j j j ",
"j j j j j j j j j j j j h 6 y h j 3 O + 4 m N b * X X X X X X X X X X X X + < b Z b , . @ y j j j j j j j j j j j j j j j j j j ",
"j j j j j j j j j j j j d t d h > .   - R e.f.4.8 .                       + H 8.x.,.A + . X t i s s s s s s s h j j j j j j j j ",
"j p j j j j j j j j j j y 6 5 - X @ 8 U ,.S.J.g.~ J A A A A A A A A A A A J %.C.L.B.o.Z , X + 1 h s t t t y u j j j j j j j j j ",
"p j j j j j j j j j j h y 6 > .   - U e.S.U.I.Z.l.r.r.t.t.t.t.t.t.t.t.t.r.r.v.H.I.U.B.,.n +   + y j j j j j j j j j j j j j j j ",
"j j j j j j j j j h y d t y - .   < ! v.K.H.=.X.e.A.D.K.K.K.K.K.K.K.K.G.S.b.6.X.7.P.D.w.A @ . . 6 j j j k j j j j j j j j j j j ",
"j j j j j j j j j j j k h y - .   < ! v.K.g.U m 6.S.U.R.R.Q.Q.Q.Q.Q.Q.R.P.B.o.M ( J.D.w.A @ . . 6 j j j j j j j j j j j j j j j ",
"j j j j j j j j j j j k h t : .   < ! v.K.g.H w 9.L.Q.~.~.~.~.~.~.~.^.Q.R.Z.o.0 W J.D.w.A @   . t j j j j j j j j j j j j j j j ",
"j j j j j j j j j j j j h t 5 @   - J ,.p.5.b w y.U.Q.Q.U.Z.g.g.V.J.U.Q.Q.J.%.0 H y.9.$.b +   # u j j j j j j j j j j j j j j j ",
"j j j j j j j j j h i u t y h 6 @ + < b M b , r i.W.Q.P.B.*.K F W 9.S.U.~.I.&.8 , M M f - . @ 6 u u j j j j j j j j j j j j j j ",
"j h d u u u u u u u y t 6 y h i 3 . . . X X + r u.W.~.P.B.~ - X 8 @.B.U.^.I.&.7 . X X . . + 6 d d u u d d j j j j j j j j j j j ",
"v h y y u u d u j j h h h j j j j 1 O .     o r y.U.~.U.F.~ *   8 @.b.U.Q.J.%.7 .     . @ t x v v k j j j j j j j j j j j j j j ",
"v h u u h j j j j j j j j j j j j j 5 # .   X 7 _ d.I.Q.I.( *   8 @.b.P.H.8.E - . . . % y k x v z j j j j j j j j j j j j j j j ",
"h s d j j j j j j j j j j j j j j j j y % . . + 7 W d.Z.C.Q *   <  .r.N.5.H - X   . = u h h s h j j j j j j j j j j j j j j j j ",
"c h h j j j j j j j j j j j j j j j j j y @     X q ) &.%.N @ . - J  .%.E <     . % h j j x s u i j j j j j j j j j j j j j j j ",
"h h h j j j j j j j j j k k j j j j j j j y @ . . + - , , # .   X * - , * X . . = j j j j j y t t t y d d h h h j h h j j j j j ",
"v h h j j j j j j j j j j j j j j j j j j j 6 @ . .   . . . @ @ + . . .   . X = h j j j j p y s t t s c x h h h j j h x j j j j ",
"v h h j j j j j j j j j j j d h j j j j j k j d = @ + + + 1 h h h > + + + # 1 j j j j j j i h v j j j z k j j j j j j j j j j j ",
"v h h j j j k j j j j j j j j j j j j j k k k j j j j j h x j j j j j j j j j j j j j j j h h z k j k j j j j j j j k j j j j j "
};
