/* XPM */
static char *_df79a00777f44f5bb2f181c9dc5aa0dUJ9PHaLP1YdaDReU[] = {
/* columns rows colors chars-per-pixel */
"64 64 201 2 ",
"   c #070000",
".  c #0A0303",
"X  c #0E0807",
"o  c #0E0909",
"O  c #100606",
"+  c #120907",
"@  c #140B0A",
"#  c #1A0E0C",
"$  c #1C110E",
"%  c #141213",
"&  c #1C1212",
"*  c #1B1D1E",
"=  c #21130E",
"-  c #221513",
";  c #281514",
":  c #261815",
">  c #2B1B14",
",  c #271919",
"<  c #2C1C1B",
"1  c #311E16",
"2  c #341E1D",
"3  c #332117",
"4  c #3A2317",
"5  c #352219",
"6  c #3C261A",
"7  c #3E291D",
"8  c #2E2423",
"9  c #2F2A29",
"0  c #342423",
"q  c #3A2524",
"w  c #362827",
"e  c #3C2A2A",
"r  c #3B302E",
"t  c #373231",
"y  c #3B3433",
"u  c #333B3B",
"i  c #442B1E",
"p  c #4B2E1E",
"a  c #4D301F",
"s  c #51311F",
"d  c #442626",
"f  c #462D20",
"g  c #4A2E20",
"h  c #442D2D",
"j  c #4D2D2C",
"k  c #512F2E",
"l  c #4D3121",
"z  c #44302E",
"x  c #553623",
"c  c #583724",
"v  c #5A3927",
"b  c #53342A",
"n  c #563829",
"m  c #5C3B2A",
"M  c #443131",
"N  c #4A3434",
"B  c #4A3A3B",
"V  c #4B3C3B",
"C  c #593634",
"Z  c #543C3C",
"A  c #5A3B3B",
"S  c #633D3C",
"D  c #54403F",
"F  c #2F3F40",
"G  c #344548",
"H  c #3D5357",
"J  c #404344",
"K  c #4C4343",
"L  c #534746",
"P  c #5B4343",
"I  c #5C4B4A",
"U  c #415457",
"Y  c #5B5756",
"T  c #624544",
"R  c #6C4544",
"E  c #664848",
"W  c #654A4A",
"Q  c #6B4E4E",
"!  c #714B4B",
"~  c #7B4E4D",
"^  c #71514F",
"/  c #6D4F50",
"(  c #6E5352",
")  c #665A5A",
"_  c #755756",
"`  c #775857",
"'  c #795758",
"]  c #735B5B",
"[  c #7B5A5A",
"{  c #5F6E71",
"}  c #6A6666",
"|  c #6D6867",
" . c #7C6363",
".. c #796968",
"X. c #797372",
"o. c #865858",
"O. c #955D5C",
"+. c #856363",
"@. c #8A6766",
"#. c #8A6A69",
"$. c #946E6D",
"%. c #996968",
"&. c #8C706F",
"*. c #98716F",
"=. c #8D7473",
"-. c #897676",
";. c #957271",
":. c #9B7574",
">. c #927C7B",
",. c #9D7A79",
"<. c #A96B6A",
"1. c #AC706F",
"2. c #A77473",
"3. c #A27877",
"4. c #A27879",
"5. c #A37C7B",
"6. c #AA7D7D",
"7. c #B17877",
"8. c #B57C7B",
"9. c #AE807F",
"0. c #AE7F80",
"q. c #5D8286",
"w. c #6C9A9D",
"e. c #779C9E",
"r. c #7D9EA0",
"t. c #958080",
"y. c #9B8282",
"u. c #908D8C",
"i. c #A58684",
"p. c #A98584",
"a. c #A48C8C",
"s. c #AD8B8A",
"d. c #BE8786",
"f. c #B38788",
"g. c #B48C8C",
"h. c #BE8B8A",
"j. c #AE908F",
"k. c #B7908F",
"l. c #AE9694",
"z. c #A49D9E",
"x. c #B69594",
"c. c #BB9393",
"v. c #BD9997",
"b. c #B29A99",
"n. c #BB9C9B",
"m. c #88A3A6",
"M. c #8AAAAC",
"N. c #8BB7BC",
"B. c #98BABD",
"V. c #ACAAA9",
"C. c #BBA1A1",
"Z. c #B3B1B1",
"A. c #B8B7B6",
"S. c #BCBBBA",
"D. c #C18684",
"F. c #C28D8C",
"G. c #C39493",
"H. c #CA9594",
"J. c #CD9897",
"K. c #C49A99",
"L. c #CD9C9B",
"P. c #D19D9C",
"I. c #C8A09F",
"U. c #D0A09F",
"Y. c #C2A4A3",
"T. c #CFA3A1",
"R. c #CCA4A3",
"E. c #CBA8A7",
"W. c #CCACAC",
"Q. c #D2A4A3",
"!. c #D4A8A7",
"~. c #D4ACAB",
"^. c #D5B0AF",
"/. c #D9B1AF",
"(. c #CAB4B4",
"). c #D3B4B3",
"_. c #DAB5B4",
"`. c #DCB8B7",
"'. c #D9B7B8",
"]. c #D7BABB",
"[. c #DCBCBC",
"{. c #DFBDBE",
"}. c #E0BDBE",
"|. c #C1C1BF",
" X c #DEC0BF",
".X c #E0C0BE",
"XX c #93BFC5",
"oX c #9BC6CC",
"OX c #A1C7CC",
"+X c #ACC6CB",
"@X c #A1C8CA",
"#X c #C4C7C6",
"$X c #CBC7C6",
"%X c #D0C6C7",
"&X c #DFC1C1",
"*X c #D6D5D5",
"=X c #E3C5C5",
"-X c #E3C6C5",
";X c #E6C6C8",
":X c #E7E7E6",
">X c #F8F9F9",
/* pixels */
"x x x x x x x x x x x x x x c c c x x x x x x x x x x x x x x x x x x x x x x x x x x x x x x x x x x x x p i p x x x x x x x x ",
"i p a x x x x x x x x x x x c c c c x x x x x x x x x x x x x x x x x x x x x x x x x x x x x x x x c c v l i p x x x x x x x x ",
"p l x x x x x x x x x x x x c c x x x x l g l l 5 - $ $ $ $ # # # # # $ $ > i x c c x x x x x x x x x x m l i p x x x x x x x x ",
"x x x x x x x x x x x x x x c c x x x x x x l < X                           # > l x x c x x x x x x x x l i i s x x x x x x x x ",
"x x x x x x x x x x x x x x x x x x x g 1 $ # X                               . @ - 7 x x x x x x x x x x g p x x x x x x x a i ",
"x x x x x x x x x x x x x x x x x l 7 : X   X # 0 e e e e e e e e e e e e q - X     # 5 i x x x x x x v m x g x x x x x x x l i ",
"x x x x x x x x x x x x x x x x 1 # O .     + q +.4.4.4.4.4.4.4.4.4.4.4.4.$.A &       X + = l x l a l l b l a x x x x x x x x x ",
"x x x x x c c x x x c c x x l 3 +     @ < M Z ] k.T.T.T.T.T.T.T.T.T.T.T.R.K.=.P M w &       - i x l l l g i l x x x x c c c x c ",
"x x x x x x x x x x x x x x > O . X X 0 _ s.n.E.'.{.{.}.}.}.}.}.}.}.}.{.{.].W.C.s.$.N + X X . $ x m m m x i i l x x x x x x x x ",
"g g l l l l l l l l l l p > X X < M B ] p./.{.=X=X=X=X=X=X=X=X=X=X=X=X=X=X=X=X=X_.K.#.D N q @   - f n m x i i i g l l l l l l l ",
"x x x x x x x x x x x x > X + < ( i.x.Y.). X=X=X=X=X=X=X=X=X=X=X=X=X=X=X=X=X=X=X=X].W.n.s.@.q @ . $ i x x l l l x x x x x x x x ",
"x x x x x x x x x x x > X X q / p.~.{.=X=X=X=X=X=X=X=X=X=X=X=X=X=X=X=X=X=X=X=X=X=X=X=X=X_.v. .M # . $ i x x x x x x x x x x x x ",
"x x x x x x x x x l 3 . + : Q p.E.{.=X=X=X=X=X=X=X=X=X=X=X=X=X=X=X=X=X=X=X=X=X=X=X=X=X=X X).c.+.0 # . - p x x x x x x x x x x x ",
"x x x x x x l i i > X   0 ^ p.E.{.=X=X=X=X=X=X=X=X=X=X=X=X=X=X=X=X=X=X=X=X=X=X=X=X=X=X=X=X=X_.x.+.M + . - p x x x x x x x x x x ",
"x x x x x x l p 4 X     V g.).{.=X=X=X=X=X=X=X=X=X=X=X=X=X=X=X=X=X=X=X=X=X=X=X=X=X=X=X=X=X=X=X_.L._ #   . 1 x x x x x x x x x x ",
"x x x x x x x x 6 X     P Y.{.=X=X=X=X=X=X=X=X=X=X=X=X=X=X=X=X=X=X=X=X=X=X=X=X=X=X=X=X=X=X=X=X{.). .&   . - l x x x x x x x x s ",
"x x x x x x x l > . @ , ] W.=X=X=X=X=X=X=X=X=X=X=X=X=X=X=X=X=X=X=X=X=X=X=X=X=X=X=X=X=X=X=X=X=X=X&X>.e & . # 6 x x x x x x p p p ",
"x x x x x x x 5 X . 0 [ s.].=X=X=X=X=X=X=X=X=X=X=X=X=X=X=X=X=X=X=X=X=X=X=X=X=X=X=X=X=X=X=X=X=X=X=Xn.#.N +   $ i x x x p i i i p ",
"x x x x x x l $   . N g.~.=X=X=X=X=X=X=X=X=X=X=X=X=X=X=X=X=X=X=X=X=X=X=X=X=X=X=X=X=X=X=X=X=X=X=X=X_.K.( &   . 4 x x x s p p p l ",
"c c c c c x l +   + L Y.{.=X=X=X=X=X=X=X=X=X X{.{.[.[.[.{.&X=X=X=X=X=X=X=X=X=X=X=X=X=X=X=X=X=X=X=X.X). .- X   > x x x x x x x x ",
"x x x x x x 4 X & h +.).=X=X=X=X=X=X=X=X`.R.i.>.>.>.>.>.t.n._.{.=X=X=X=X=X=X=X=X=X=X=X=X=X=X=X=X=X=X{.y.Z , X # 4 x x x x x x x ",
"l l l l p 4 O X q @.v.{.=X=X=X=X=X=X=X{.R.,.N : , < 8 8 e #.K._.=X=X=X=X=X=X=X=X=X=X=X=X=X=X=X=X=X=X=XR.,.Z #   # i g p a p p p ",
"x x x x x 3   X e ,.T.}.=X=X=X=X=X=X=XE.:.A -   @ t | X.X. .#.n.{.=X=X=X=X=X=X=X=X=X=X=X=X=X=X=X=X=X=X_.f.T #   # p x x x x s x ",
"x x x x x 1   X e 3.R..X=X=X=X=X=X=X=Xb.I # X   & ) $X*X*X| V y.].=X=X=X=X=X=X=X=X=X=X=X=X=X=X=X=X=X=X_.f.T #   # i x x x x x x ",
"x x x x x >   X e ,.R.}.=X=X=X=X=X=X=Xl.K       & | :X>X:X| r >.'.=X=X=X=X=X=X=X=X=X=X=X=X=X=X=X=X=X=X/.f.T #   # i x x x x x x ",
"x x x x x >   X 0 +.s.n.W.{.=X=X=X=X=Xl.K       % Y S.*X#XY e >.'.=X=X=X=X=X=X=X=X=X=X=X=X=X=X=X=X=X=X/.f.T #   @ i x x x x x x ",
"x x x x x >     & h D I =.R.{.=X=X=X=Xl.K       o 9 Y } ) 9 w >.'.=X=X=X=X=X=X=X=X=X=X=X=X=X=X=X=X=X=X/.f.T #   @ i x x x x x x ",
"x x x x x >     . O @ + N $.v.).=X=X=Xl.K         X # % % o 8 >.'.=X=X=X=X=X=X=X=X=X=X=X=X=X=X=X=X}.`.!.0.P #   @ p x x x x x x ",
"x x x x x >             - N &.K.{.=X;Xl.K                   8 >.'.=X=X=X=X=X=X=X=X=X=X=X=X=X=X=X=X`.!.H.2.A @   # l x x x x x x ",
"x x x x x >     & y K K K L ] :.Y.{.=XC.] < +             , P a.{.=X=X=X=X=X=X=X=X=X=X=X=X=X=X=X=X_.J.2.~ d + X > x x l g l l l ",
"x x x x x >   X y u.S.|.|.A.X.I >.'.=X).c.[ 8 . X X X X $ Q p.E.&X=X=X=X=X=X=X=X=X=X=X=X=X=X=X=X=X/.G.[ 0 @ . > l x x x x x x x ",
"x x x x x >   X t u.V.Z.Z.V.Y t &.).=X{.^.s.Y u u u u u J >.E.{.=X=X=X=X=X=X=X=X=X=X=X=X=X=X=X=X{.!.h.E #   . 4 x x x x x x x x ",
"x x x x x 5     # 9 y V V V 0 e -.).=X=X{.(.m.e.r.r.r.r.m.Z.{.=X=X=X=X=X=X=X=X=X=X=X=X=X=X=X=X{.!.F.1.A @   O 4 x x a l a l a a ",
"x x x x x i -       , D T E E ` s.[.=X=X=X%X+XoXoXoXoXoX@X#X=X=X=X=X=X=X=X=X=X=X=X=X=X=X=X=X=X_.U.*.S 2 O X > i p p p i p p a x ",
"x x x x x x i +   . e *.0.f.f.c.E.&X=X=X=X%X+XoXoXoXoXoX@X#X=X=X=X=X=X=X=X=X=X=X=X=X=X=X=X=X=X_.J.[ < @   $ i x s s p i p s x x ",
"x x x x x x l #   X h 2.F.L.!._.{.=X=X=X=X%X+XoXoXoXoXoX@X#X=X=X=X=X=X=X=X=X=X=X=X=X=X=X=X.X_.Q.F.! #     > x x x x p i a s x x ",
"x x x x x x x - .   q O.8.H.~.{.=X=X=X=X=X%X+XoXoXoXoXoX@X#X=X=X=X=X=X=X=X=X=X=X=X=X=X=X=X_.P.D.1.S @   . 5 x x x x l i p x x x ",
"x x x x x x c i - . # d ~ 8.J.!.{.=X=X=X=X%X+XoXoXoXoXoXOX#X=X=X=X=X=X=X=X=X=X=X=X=X=X}._.Q.D.%.S 2 X X > l x x x x l i p x x x ",
"x x x x x c c x g $ . . q o.7.G.!.{.=X=X=X%X+XoXoXoXoXoXOX#X=X=X=X=X=X=X=X=X=X=X=X{.{._.U.d.%.S = . X > l x x x x a i i a x x x ",
"x x x x x c c c x p $   # d o.7.H.!.`.=X=X%X+XoXoXoXoXoXOX#X=X=X=X=X=X=X=X=X=X=X_.!.!.L.h.%.C < O X > l x x x x x x i 7 p x x x ",
"x x x x x x x x x x i # . + j ~ %.6.K.^._.(.B.XXoXoXoXoXOX#X=X=X=X=X=X=X=X=X.X`.Q.F.9.*.O.R ; . X : l x x x x x x x p 7 i x x x ",
"x x x x x x x x x x x l $ . # < 5 Z +.h.J.C.m.M.XXoXoXoXOX#X=X=X=X=X=X=X=X=X_.!.F.1.R q 2 ; O . 3 x x x x x x x x x p 7 i x x x ",
"x x x x x x x x x x x x i $ X . . , k o.+...{ q.M.N.N.N.N.A._.`._._._._./.E.g.;.o.R q X X   X > l x x x x x x v v m x 7 i p x x ",
"x x x x x x x x x x x x l i $ .   . @ = - - * F q.w.w.w.w.z.L.L.L.L.L.L.F.7.! q - # O     X 6 l x x x x x x x v m m n i i p x x ",
"x x x x x x x x x x m n g i 6 > # .         o * G H H H U Y _ ' ` ` ` _ ! S q @         # > x x x x x x x x x x x x x l l x x x ",
"x x x x x x x x v v m m l 7 i p i 5 #         . % % % % % & - - - - - - - # # # @ O . X : l m x x x x x x x x x x x x x x x x x ",
"x x x x x x x x x x x x l 7 i l x x i - O                                 + y ) ] P 0 X + > x x x x x x x x x x x x x x x x x x ",
"x x x x x x x x x x x x g i g l x x x 6 =     O - : : : : , , , , , , , , e ..n.R.p.E , + X 3 p f f f f f f f l x x x x x x x x ",
"x s x x x x x x x x x x i 7 7 i i f g 6 =   X < E ' [ [ [ [ [ [ [ [ [ [  .-.b.).{.R.,.E < . @ 1 g f i i i i p x x x x x x x x x ",
"s x x x x x x x x x x l i 7 i i l x l 3 #   # M 4.K.K.K.K.K.K.K.K.K.G.c.g.j.Y.[.=X{.R.:.z X   $ l x x x x x x x x x x x x x x x ",
"x x x x x x x x x l i g i i p x x x 1 # .   # B x._._._._._._._._._.~.L.:. .y.).=X}.!.6.M X   # g x x x x x x x x x x x x x x x ",
"x x x x x x x x x x x c l i a x x i $     @ e ( I.{.=X=X=X=X=X=X=X=X{.!.;.E ] a.W.{.!.6.M X   # g x x x x x x x x x x x x x x x ",
"x x x x x x x x x x x c l i f p l 7 $     < o.f.L._..X=X=X X{.=X=X=X=X{.K.5.( P >.).T.4.M .   $ g x x x x x x x x x x x x x x x ",
"x x x x x x x x x x x x l i p l x 7 #     e 4.P.L.!._._.~.n.b.W.=X=X=X=X_.G.Q 0 I y.,.[ q . X : l x x x x x x x x x x x x x x x ",
"x x x x x x x x x a a p i i x x x i $     e 3.P.L.L.Q.H.8.^ I a.{.=X=X=X_.G./ , & 0 0 < @ X > i a p x x x x x x x x x x x x x x ",
"x l g p p p p p p p i i 7 i l x x i $     e 3.P.L.L.J.D.<.b e >.'.=X=X=X_.G.( -         X - i g g p p g g x x x x x x x x x x x ",
"m l i i p p g p x x l l l x x x x p -     q $.G.J.L.L.D.<.b w >.).=X=X.X~.g.E -       X > x b m m c x x x x x x x x x x x x x x ",
"m l p p l x x x x x x x x x x x x x 7 $ X - P @.h.L.L.D.<.k q &.R././.~.p.` q @     + > l c l m v x x x x x x x x x x x x x x x ",
"l f g x x x x x x x x x x x x x x x x i $   & N 3.F.F.8.<.j 2 [ g.G.G.h.` 0 .     O 1 l l l f l x x x x x x x x x x x x c x x x ",
"n l l x x x x x x x x x x x x x x x x x i $ X - N P P A k ; # e P T P P q #     + 3 x x x x f p a x x x x x x x x x x x c c x x ",
"l l a x x x x x x x x c c c x x x x x x x i #     . .           . . .         O > x x x x x i i i i i g i g l l x l l x x x x x ",
"m l l x x x x x x x x x x x x x x x x x x x i = .                           # 5 l x x x x s i f i i f n x l l l x x l x x x x x ",
"m l l x x x x x x x x x x x g l x x x x x x x i - # # # # # @ + + + # # $ = 4 x x x x x x a l m x x x v c x x x x x x x x x x x ",
"m l l x x x c x x x x x x x x x x x x x c c c x x l l l l l l l l l x x x x x x x x x x x l l v c x c x x x x x x x c x x x x x "
};
