/* XPM */
static char *_4e70aab2fae4a10a09684e156deb14ds4fNDjlzCxACAMnv[] = {
/* columns rows colors chars-per-pixel */
"64 64 205 2 ",
"   c #070000",
".  c #0A0303",
"X  c #0E0807",
"o  c #0E0809",
"O  c #110606",
"+  c #130907",
"@  c #130708",
"#  c #140B0B",
"$  c #1A0E0D",
"%  c #1C110E",
"&  c #1E1211",
"*  c #161819",
"=  c #1A1C1D",
"-  c #22140F",
";  c #231513",
":  c #291616",
">  c #261813",
",  c #2C1C14",
"<  c #251A1A",
"1  c #2B1B1B",
"2  c #311E15",
"3  c #331E1D",
"4  c #2C211F",
"5  c #332016",
"6  c #34221B",
"7  c #3B251A",
"8  c #3E281D",
"9  c #2B2423",
"0  c #2B2D2D",
"q  c #342323",
"w  c #3B2524",
"e  c #392827",
"r  c #342929",
"t  c #3C2A2A",
"y  c #36302F",
"u  c #3C3433",
"i  c #373D3E",
"p  c #442B1E",
"a  c #4B2E1E",
"s  c #4D301F",
"d  c #51311F",
"f  c #422525",
"g  c #452D21",
"h  c #4A2E20",
"j  c #432D2C",
"k  c #4B2C2B",
"l  c #532F2F",
"z  c #4E3121",
"x  c #553623",
"c  c #583724",
"v  c #563826",
"b  c #5A3927",
"n  c #55362A",
"m  c #553829",
"M  c #5C3B2A",
"N  c #443333",
"B  c #4A3433",
"V  c #4F3738",
"C  c #483A39",
"Z  c #4B3A3A",
"A  c #563A39",
"S  c #553D3D",
"D  c #623B38",
"F  c #4D403F",
"G  c #593F40",
"H  c #394648",
"J  c #4E494A",
"K  c #534342",
"L  c #5D4444",
"P  c #574847",
"I  c #5E4E4E",
"U  c #5F504F",
"Y  c #5A5455",
"T  c #604645",
"R  c #6A4242",
"E  c #634B4B",
"W  c #6B4B4B",
"Q  c #754A49",
"!  c #7A4E4D",
"~  c #68504F",
"^  c #7F514F",
"/  c #635151",
"(  c #6D5252",
")  c #695958",
"_  c #715253",
"`  c #7A5655",
"'  c #725C5C",
"]  c #7D5D5D",
"[  c #475E62",
"{  c #456062",
"}  c #666261",
"|  c #686262",
" . c #766666",
".. c #6E7B7E",
"X. c #7A7675",
"o. c #80514F",
"O. c #855352",
"+. c #865B5A",
"@. c #905B59",
"#. c #92615F",
"$. c #856262",
"%. c #8B6665",
"&. c #8B6767",
"*. c #866968",
"=. c #8B6C6C",
"-. c #936C6C",
";. c #9E6D6C",
":. c #816F70",
">. c #8C7272",
",. c #8A7B7A",
"<. c #947271",
"1. c #9A7575",
"2. c #927D7C",
"3. c #9D7C7B",
"4. c #A2706E",
"5. c #B1706F",
"6. c #AB7472",
"7. c #A27B7B",
"8. c #AB7978",
"9. c #B37A79",
"0. c #83807F",
"q. c #5F8085",
"w. c #6A9196",
"e. c #709B9F",
"r. c #7C9D9F",
"t. c #799CA1",
"y. c #7FAAAE",
"u. c #858080",
"i. c #9D8685",
"p. c #9F8887",
"a. c #9A9D9F",
"s. c #A58384",
"d. c #AD8484",
"f. c #A18987",
"g. c #A48D8B",
"h. c #AD8B8B",
"j. c #B38483",
"k. c #BB8584",
"l. c #B48987",
"z. c #B58989",
"x. c #BA8D8D",
"c. c #B2908E",
"v. c #B8908F",
"b. c #A99A99",
"n. c #B79493",
"m. c #BE9897",
"M. c #B39899",
"N. c #BA9E9C",
"B. c #829EA2",
"V. c #95A4A7",
"C. c #81ACB2",
"Z. c #ABA9A8",
"A. c #BFA4A4",
"S. c #B1AFB0",
"D. c #B8B6B7",
"F. c #B5B7B8",
"G. c #C38B8A",
"H. c #C88F8F",
"J. c #C3908F",
"K. c #C49493",
"L. c #CA9695",
"P. c #C59897",
"I. c #C49C9B",
"U. c #CB9898",
"Y. c #CB9C9A",
"T. c #C4A09F",
"R. c #CCA19F",
"E. c #C5A5A4",
"W. c #CFA4A3",
"Q. c #CBA5A5",
"!. c #CAA9A9",
"~. c #CAACAB",
"^. c #D2A4A4",
"/. c #D4ABAB",
"(. c #D8AFAE",
"). c #CBB0AF",
"_. c #D3B1AF",
"`. c #CBAFB0",
"'. c #CEB3B3",
"]. c #CCB8B8",
"[. c #D4B5B4",
"{. c #DBB5B4",
"}. c #DBB8B7",
"|. c #D4BBBB",
" X c #DEBAB9",
".X c #DDBCBB",
"XX c #E0BDBD",
"oX c #DEC0BF",
"OX c #E0C0BF",
"+X c #91BDC2",
"@X c #A9BDC2",
"#X c #9BC5C8",
"$X c #9CC6CB",
"%X c #AEC4C8",
"&X c #BDC6C6",
"*X c #B1C6CB",
"=X c #BDC7C8",
"-X c #C7C5C6",
";X c #D5C5C6",
":X c #DDC3C3",
">X c #D0CECF",
",X c #D9D8D8",
"<X c #E3C4C3",
"1X c #E3C5C5",
"2X c #F0EFF0",
/* pixels */
"x x x x x x x x x x x x x x c c c x x x x x x x x x x x x x x x x x x x x x x x x x x x x x x x x x x x x a p a x x x x x x x x ",
"p a s x x x x x x x x x x x c c c c x x x x x x x x x x x x x x x x x x x x x x x x x x x x x x x x c c b z p a x x x x x x x x ",
"a z x x x x x x x x x x x x x c x x x x z h z z g p 8 7 7 7 7 7 7 7 7 7 7 8 p x x x x x x x x x x x x x M z p a x x x x x x x x ",
"x x x x x x x x x x x x x x c c x x x x x z z g & . . . . . . . . . . . . . X , 8 a x x x x x x x x x x z p p d x x x x x x x x ",
"x x x x x x x x x x x x x x x x x x x x p , $ X . . . . . . . . . . . . . . . . X $ 7 x x x x x x x x x x h a x x x x x x x s p ",
"x x x x x x x x x x x x x x x x x z p 8 $ . . . $ ; ; ; ; ; ; ; ; ; ; ; ; ; & X .   # , p z x x x x x b M x h x x x x x x x z p ",
"x x x x x x x x x x x x x x x x a % X . . X X ; L $.&.&.&.&.&.&.&.&.&.&.&.&.( 1 # X . . . # 7 x z s z z m z s x x x x x x x x x ",
"x x x x x c c x x x c c x x x z > .   . & 3 e S <.I.^.^.W.W.W.W.W.W.W.W.^.W.d.E t q ; X   . # 7 x x z z g p z x x x x c c c x c ",
"x x x x x x x x x x x x x x p $ . . . # V =.s.M.~.}. X X X X X X X X X X X X_.N.g.3.L ; . . . X 3 M M M x p p z x x x x x x x x ",
"h h z z z z z z z z z z z p % . $ t C K >.I.[.:X<X<X<X<X<X<X<X<X<X<X<X<X<X<X<X<X}./.3./ C j < X o 6 v M x p p p h z z z z z z z ",
"x x x x x x x x x x x x p % . X e =.h.N.~.}.<X<X<X<X<X1X1X1X1X1X1X1X1X1X1X<X<X1X<XXX[.A.h.1.S $ . o , x x z z z x x x x x x x x ",
"x x x x x x x x x x x p % . $ N ] m.{.oX<X<X<X<X<X<X<X<X<X<X<X<X<X<X<X<X<X<X<X1X<X<X<X:X}.Q.<.S 1 . o , x x x x x x x x x x x x ",
"x x x x x x x x x x h ; . O e &.I.}.<X<X<X<X<X<X<X1X1X1X1X1X1X1X1X1X1X1X1X<X1X<X<X<X<X<X<X.X!.7.L # . X 7 x x x x x x x x x x x ",
"x x x x x x z p p 7 % . # j ] c.{.<X<X<X<X<X<X<X1X1X1X1X1X1X1X1X1X1X1X1X1X1X1X<X<X<X<X<X<X<X XI.<.S ;   # 5 x x x x x x x x x x ",
"x x x x x x z a p > . . & ] I.[.<X<X<X<X<X1X1X1X1X1X1X1X1X1X1X1X1X1X1X1X1X1X1X1X1X1X<X<X<X<X<X}.Q.1.t   . # z x x x x x x x x x ",
"x x x x x x x x z - . . < >.{..X<X<X<X<X1X1X1X1X1X1X1X1X1X1X1X1X1X1X1X1X1X1X1X1X1X1X1X1X<X<X<X<X Xc.N   . X p x x x x x x x x d ",
"x x x x x x x x 8 # X & N s.OX<X<X<X1X1X1X1X1X1X1X1X1X1X1X1X1X1X1X1X1X1X1X1X1X1X1X1X1X1X1X<X1X<X<XA.E < # . , x x x x x x a a a ",
"x x x x x x x p - . & S <.E.<X1X<X<X1X1X1X1X1X1X1X1X1X1X1X1X<X1X1X<X<X1X<X<X<X<X<X<X<X<X<X<X<X<X1X[.s._ 1 . X 5 x x x a p p p a ",
"x x x x x x x 5 X   < ] I.}.<X1X<X1X1X1X1X1X1X1X1X1X1X1X1X<X<X<X<X<X<X<X<X<X<X<X<X<X<X<X<X<X<X<X<X.XE.7.t . . % x x x d a a a z ",
"c c c c c c x , . . 1 >.[.<X1X<X<X<X1X1X1X1X1X1X1X1X1X1X1X<X<X<X<X<X:X:X:X:X:X:X:X<X<X<X<X<X<X<X1X<X}.n.N . . # z x x x x x x x ",
"x x x x x x p $ X 1 K g..X<X<X<X<X1X1X1X1X1X1X1X1X1X<X1X1X<X<XoX}.N.p.i.i.i.i.i.M./..X<X<X<X<X<X<X<X:XE.( q # X , z x x x x x x ",
"z z z z a a - . $ S <.E.:X<X<X<X<X<X1X1X1X1X1X1X1X1X1X1X<X<X<X}.I.=.K F C N u u ~ h./..X<X<X<X1X<X<X<X[.s._ < . X 7 a a s a a a ",
"x x x x x s #   & _ x.}.<X<X<X1X<X1X1X1X1X1X1X1X1X1X1X<X<X<X.XA.<. .| } Y 9 . . 1 ( s.[.1X<X<X1X<X<X<X XY.-.q . . 2 x x x x d x ",
"x x x x x z #   & _ x.}.<X<X1X1X1X1X1X1X1X1X1X1X1X1X1X1X<X<X[.p.P X.-X>XS.J # . # ; ' !.1X<X<X<X<X<X<X XY.-.q . . , x x x x x x ",
"x x x x x h +   & _ x.}.<X<X1X1X1X1X1X1X1X1X1X1X1X1X1X1X<X1X'.2.N 0.2X2X,XY # .   . I A.1X<X<X<X<X<X<X XY.-.6 . . , x x x x x x ",
"x x x x x z + . & _ x.}.<X<X1X<X1X1X1X1X1X1X1X1X1X1X1X1X<X1X'.2.u X.,X,X-XY # . . . I A.1X<X<X<X<X.X}.~.v.&.1 . . , x x x x x x ",
"x x x x x z +   & _ x.}.<X<X<X<X<X1X1X1X1X1X1X1X1X1X1X1X<X1X'.2.r C X.X.} r X . . . I A.1X<X<XoX}.I.>.) T B $ . . , x x x x x x ",
"x x x x x z +   & _ z.(..X<X1X<X<X<X1X1X1X1X1X1X1X1X1X1X<X1X'.2.9 o # # # .     . . I A.1X<X<X}.R.<.N # # X .   . , x x x x x x ",
"x x x x x x #   % R 8.Y./.XX<X<X<X1X1X1X1X1X1X1X1X1X1X1X<X1X'.2.9 .   . .       . . U A.1X<X}.m.=.V ; . . . . . . , x x x x x x ",
"x x x x x x - . $ l @.k.Y.}.<X1X<X1X1X1X1X1X1X1X1X1X1X<X<X1X[.f.C $ .           # 1  .!.1X.XE.3.) C u y y 9 # . . , z z h z z z ",
"c c x x x x x ; X ; k -.Y.}.<X<X<X<X1X1X1X1X1X1X1X1X1X1X1X<X.XE.<.V X           1 ] x.}.<X[.>./ ,.S.D.D.S.u.9 . . 2 x x x x x x ",
"x x x x x x x , . . < ` G./. X<X<X<X<X1X1X1X1X1X1X1X1X1X1X<X<X}.T.:.H i i i i i Y n./..X<X'.' u } Z.Z.Z.b.X.9 . . 5 x x x x x x ",
"x x x x x x x 5 X   ; Q 9.L./. X<X<X<X1X1X1X1X1X1X1X1X1X1X<X<X<X|.S.B.t.r.r.t.t.V.]..X<X<X`.' < < u u u u 9 # . . 5 s z s z s s ",
"x x x x x x x a ; . # k ! 9.^.}.<X<X<X<X1X1X1X1X1X1X1X1X1X<X<X<X:X&X$X#X#X#X#X#X%X;X<X<X<X}.3.E S G S N & . . . # 7 a p a a s x ",
"x x x x x x x x p $ . @ q &.^.}.<X<X<X<X1X1X1X1X1X1X1X1X1X<X<X<X:X&X$X#X#X#X#X$X*X;X<X<X<X.X!.v.z.z.j.-.q . . # 7 a a p a d x x ",
"x x x x x x x x x >     ; +.K.^.}.<X<X<X<X<X1X<X1X1X1X1X1X1X<X<X:X&X$X#X#X$X$X$X*X;X<X<X<X<X X/.^.U.G.;.w . . $ s x a p s d x x ",
"x x x x x x c c x 5 X   $ R 6.G.^. X:X<X1X<X<X<X1X1X1X1X1X1X<X<X:X&X$X$X$X$X$X$X*X;X<X<X<X<X<X}.^.H.6.O.2   . > x x z p a x x x ",
"x x x x x x c c x a > . # f ! 6.L./. X<X<X<X1X<X<X1X1X1X1X1X<X<X:X&X$X$X$X$X$X$X*X;X<X<X<X<X X/.Y.9.! k $   $ p x x z p a x x x ",
"x x x x x c c c x x a ; . # 3 Q 6.J.^. XXX.X<X<X<X<X<X1X1X1X<X<X:X&X$X$X$X$X$X$X*X;X<X<X<X X/.K.9.O.f # X # 8 x x s p p s x x x ",
"x x x x x x c c x x x a > . # 3 R 6.H.^././. X<X<X1X1X<X1X1X<X<X:X=X$X$X$X$X$X$X*X;X<X<X}./.L.6.! w $   $ 7 x x x x p 8 a x x x ",
"x x x x x x x x x x x x z - . O 3 ^ ;.8.x.L./..X<X<X<X<X<X<X<X<X:X=X$X$X$X$X#X#X@X|. X{.I.j.4.o.k O . # 7 x x x x x a 8 p x x x ",
"x x x x x x x x x x x x x h ; . # 3 t B ` 6.K.^.}.<X<X<X<X<X<X<X:X&X$X#X#X#X+Xy.V.A.I.k.+.S t 3 $ . $ 7 x x x x x x a 8 p x x x ",
"x x x x x x x x x x x x x x a % .     X k O.;.d.I.[. X.X.X.X.X.X.XF.+X+X+X+XC.w...2.;.@.l $     . # 7 x x x x b b M x 8 p a x x ",
"x x x x x x x x x x x x z z x a > .   . $ 3 e V $.j.P.Y.Y.Y.Y.Y.I.a.t.e.e.e.q.H 0 t e 3 ; O   . % p x x x x x b M M v p p a x x ",
"x x x x x x x x x x M v h p p a p > X     . . $ k Q +.$.$.$.$.$.$.} [ { { [ H * . . . . . + $ ; 7 x x x x x x x x x x z z x x x ",
"x x x x x x x x b b M M z 8 p a x p ; . X # # # & : 1 1 1 1 1 1 1 < = = = = * .   . . . $ 7 x x x x x x x x x x x x x x x x x x ",
"x x x x x x x x x x x x z 8 p z z 5 # X 3 S E K 4 X . . . . . . . . .         .     X $ 7 x x x x x x x x x x x x x x x x x x x ",
"x x x x x x x x x x x x h p h z 5 . X & W l.E.M./ < $ $ # $ $ $ $ $ $ $ $ $ # . .   % p x x x z g g g g g g g z x x x x x x x x ",
"x d x x x x x x x x x x p 8 8 > X X 6 W 3.!. X[.g. .' _ _ _ _ _ _ _ _ _ _ ( S ; .   % p x x x x z g p p p p a x x x x x x x x x ",
"d x x x x x x x x x x z p 8 5 #   # A d./.XX<X:X'.E.I.P.P.P.P.P.P.I.P.I.P.P.1.e X   $ 7 x x x x x x x x x x x x x x x x x x x x ",
"x x x x x x x x x z p h p p 7 #   # S z./.:X<X).2.*.d.R.(.}.}.}.}.}.}.}.{._.h.N #   . + 7 x x x x x x x x x x x x x x x x x x x ",
"x x x x x x x x x x x c z p 7 +   # S z./..X'.g.) ~ 7./. X<X<X<X<X<X<X<XOX}.n.L 1 X   . > z x x x x x x x x x x x x x x x x x x ",
"x x x x x x x x x x x c z p 7 # . # S l./.[.,.I ' 3.I. X<X<X<X<X<X<X<X<XOX[.I.7.( & . . % p x x x x x x x x x x x x x x x x x x ",
"x x x x x x x x x x x x z p p , . X t $.3.2.K e ] P.{.<X<X<XoX).M.N./.{.{.^.Y.U.-.1 . . $ 7 x x x x x x x x x x x x x x x x x x ",
"x x x x x x x x x s s a p p x s , . $ 3 e r & 1 ] I.}.<X<X1X|.g.E +.k.L.^.Y.Y.Y.<.1 . . # 5 a a s a x x x x x x x x x x x x x x ",
"x z h a a a a a a a p p 8 p z x a - . . . . . 1 ] I.}.<X<X1X[.2.t D 5.G.Y.Y.Y.Y.<.1 . . $ 7 h h h a a h h x x x x x x x x x x x ",
"M z p p a a h a x x z z z x x x x p > . . . . < ] P.{.<X<X<X'.2.t D 5.G.Y.Y.Y.L.-.1 .   > x m M M c x x x x x x x x x x x x x x ",
"M z a a z x x x x x x x x x x x x x z , X .   % V =.m.{.{.{.E.>.e D 5.G.Y.Y.x.-.T $ . # 8 c z M b x x x x x x x x x x x x x x x ",
"z g h x x x x x x x x x x x x x x x x z 2 O   . # j $.z.x.x.s.` 6 n #.6.j.j.-.B ; X # 7 h z g z x x x x x x x x x x x x x x x x ",
"m z z x x x x x x x x x x x x x x x x x x , X     ; V ( _ _ W B ; 3 D W _ ( S ; X # 7 x x x g a s x x x x x x x x x x x x x x x ",
"z z z x x x x x x x x x c c x x x x x x x x > X   X # & & % $ # . O $ $ & & $ X # 7 x x x x p p p p p h p h z z x z z x x x x x ",
"M z z x x x x x x x x x x x x x x x x x x x z , X     . . . .       . .   . . % 7 x x x x d p g p p g m x z z z x x z x x x x x ",
"M z z x x x x x x x x x x x h z x x x x x c c x 2 $ # + + + O + + O + O O # - a x x x x x s z M x x x b c x x x x x x x x x x x ",
"M z z x x x c x x x x x x x x x x x x x c c x x x x x z z z z z z z z h z z x x x x x x x z z b c x c x x x x x x x c x x x x x "
};
