/* XPM */
static char *_1ce2ddea6064a4c9361f57ab7ffddfaaenwDXbgXB3xoEAy[] = {
/* columns rows colors chars-per-pixel */
"64 64 182 2 ",
"   c #020101",
".  c #0A0403",
"X  c #0E0906",
"o  c #070708",
"O  c #0B0709",
"+  c #0B0909",
"@  c #140202",
"#  c #1C0202",
"$  c #100B07",
"%  c #140708",
"&  c #130D0A",
"*  c #1C0C0B",
"=  c #15100D",
"-  c #1B110C",
";  c #1F0E10",
":  c #141313",
">  c #1B1414",
",  c #1E1D1D",
"<  c #230202",
"1  c #2C0202",
"2  c #2D0908",
"3  c #350202",
"4  c #390202",
"5  c #370F0F",
"6  c #3B0B0B",
"7  c #23160F",
"8  c #231615",
"9  c #2B1111",
"0  c #261912",
"q  c #2B1C13",
"w  c #241B1B",
"e  c #2A1D1D",
"r  c #321615",
"t  c #391414",
"y  c #311F15",
"u  c #331F1E",
"i  c #23201F",
"p  c #342116",
"a  c #362218",
"s  c #3C2519",
"d  c #3E281C",
"f  c #221E20",
"g  c #291F20",
"h  c #252020",
"j  c #2D2323",
"k  c #2F2A29",
"l  c #332423",
"z  c #3C2423",
"x  c #3C2826",
"c  c #332D2D",
"v  c #3C2C2A",
"b  c #3D302E",
"n  c #3F3433",
"m  c #400D0D",
"M  c #46110F",
"N  c #441515",
"B  c #491515",
"V  c #441817",
"C  c #461718",
"Z  c #461C1C",
"A  c #4C1B1B",
"S  c #511D1C",
"D  c #40211F",
"F  c #4C201E",
"G  c #442B1D",
"H  c #4B2E1E",
"J  c #4D301F",
"K  c #51311F",
"L  c #452D21",
"P  c #4A2E20",
"I  c #432D2C",
"U  c #4A2F2D",
"Y  c #542524",
"T  c #532924",
"R  c #5D2E2C",
"E  c #4D3121",
"W  c #49302D",
"Q  c #553623",
"!  c #553525",
"~  c #563624",
"^  c #573724",
"/  c #583724",
"(  c #583725",
")  c #563826",
"_  c #5A3927",
"`  c #54352A",
"'  c #553829",
"]  c #5A3929",
"[  c #5C3B2A",
"{  c #423433",
"}  c #4D3734",
"|  c #423836",
" . c #4E3834",
".. c #453A3A",
"X. c #4B3C3B",
"o. c #5F3534",
"O. c #5E3836",
"+. c #503D3C",
"@. c #63312E",
"#. c #653837",
"$. c #713E3A",
"%. c #54413F",
"&. c #58423F",
"*. c #61413E",
"=. c #4E4141",
"-. c #564340",
";. c #5A4443",
":. c #5F4843",
">. c #544949",
",. c #674545",
"<. c #6A4443",
"1. c #654A46",
"2. c #6B4B47",
"3. c #644C4C",
"4. c #694D4A",
"5. c #734643",
"6. c #784C48",
"7. c #7C4D4B",
"8. c #72534F",
"9. c #7B524D",
"0. c #6D5351",
"q. c #755651",
"w. c #7C5452",
"e. c #775955",
"r. c #7C5A55",
"t. c #745A5B",
"y. c #7D5E5D",
"u. c #7D6263",
"i. c #814A47",
"p. c #86544F",
"a. c #835351",
"s. c #8C5752",
"d. c #845A55",
"f. c #895954",
"g. c #835E5A",
"h. c #8E5E59",
"j. c #905F58",
"k. c #84625B",
"l. c #8C625D",
"z. c #8C645E",
"x. c #8D655E",
"c. c #92615C",
"v. c #8B6662",
"b. c #8C6864",
"n. c #876B6B",
"m. c #8A6B6B",
"M. c #926561",
"N. c #946A64",
"B. c #996C65",
"V. c #956769",
"C. c #936B69",
"Z. c #9B6F69",
"A. c #94706D",
"S. c #9D726D",
"D. c #9A6F70",
"F. c #8F7171",
"G. c #947373",
"H. c #9C7373",
"J. c #977877",
"K. c #9B7877",
"L. c #997778",
"P. c #997878",
"I. c #A16D6B",
"U. c #A4766E",
"Y. c #A37672",
"T. c #A67974",
"R. c #A97A75",
"E. c #A27C7B",
"W. c #AC7E7A",
"Q. c #AC7F7B",
"!. c #AE7F7C",
"~. c #A7807E",
"^. c #AC817E",
"/. c #B0837F",
"(. c #A78081",
"). c #AB8383",
"_. c #B38684",
"`. c #B58886",
"'. c #B28789",
"]. c #B68B8B",
"[. c #B78B8C",
"{. c #B98D8E",
/* pixels */
"Q Q Q Q ~ ~ ~ ~ ~ ~ ~ ~ ~ ~ ~ ~ ~ ~ ~ ~ ~ ~ ~ ~ ~ ~ ~ ~ ~ ~ ~ ~ ~ ~ ~ Q Q Q ~ ~ ~ ~ Q Q Q Q Q Q Q Q Q Q Q H G H Q Q Q Q Q Q ~ ~ ",
"G H J Q Q Q ~ ~ ~ ~ ~ ~ ~ ~ ~ ~ ~ ~ ~ Q Q Q Q Q Q Q Q Q Q ~ ~ ~ ~ ~ ~ ~ Q Q ~ ~ ~ ~ ~ ~ Q Q Q Q Q Q ( ( _ E G H Q Q Q ~ ~ ~ ~ ~ ",
"H E Q Q Q Q ~ ~ ~ ~ ~ ~ ~ ~ ~ ~ ~ ~ ~ Q E P E E E E Q E Q Q Q Q Q Q Q Q Q Q Q Q Q ~ ~ ~ ~ ~ ~ ~ ~ ~ Q Q ] E G H Q Q Q ~ Q ~ ~ Q ",
"Q Q Q Q Q Q ~ ~ ~ ~ ~ ~ ~ ~ ~ ~ ~ ~ Q ~ Q Q [ Q p q 0 0 0 0 0 0 0 0 0 0 0 0 0 q E Q ~ ~ ~ ~ ~ ~ ~ ~ Q Q E G G K Q Q Q ~ Q Q Q Q ",
"Q Q Q Q Q Q Q Q ~ ~ ~ Q Q ~ ~ ~ ~ ~ ~ Q E E E d $                             & s E E E Q ~ ~ ~ Q Q Q Q ~ P H Q Q Q Q Q Q Q J G ",
"Q Q ~ ~ ~ Q Q Q Q Q Q Q ~ ~ ~ Q Q Q Q J 0 - - - .                             . & - - 0 J Q Q Q Q Q Q _ [ Q P Q Q Q Q Q Q Q E G ",
"Q Q Q ~ ~ Q Q Q Q Q Q Q Q ~ ~ Q G G G p &     X 8 e e e e e e e e e e e e e e w X     $ p G G G H J E E ` E J Q Q Q ~ ~ ~ ~ ~ ~ ",
"Q Q Q ~ ~ ( ( ~ ~ ~ ( ( ~ ~ Q G - X X X . . X w 8.x.x.x.x.x.x.x.x.x.x.x.x.x.x.q.e + . . X X X - s E E E L G E Q ~ Q ~ ( ( ( ~ ( ",
"Q Q Q Q Q Q Q Q Q Q Q Q Q E s 0 .     & v  .+.3.H.Q.!.!.!.!.!.!.!.!.!.!.!.!.Q.H.3.+.} v &     . q G ] [ ~ G G E Q Q Q Q Q Q Q Q ",
"P P E E E E E E E E E E H s & . X X & l g.S.~.).].].[.[.[.[.[.[.[.[.[.[.[.[.].].).~.H.g.l & X X X - L ) ~ G G G P E E E E E E E ",
"Q Q Q Q Q Q Q Q Q Q Q H q - X > +.1.0.y.E._.].{.{.{.{.{.{.{.{.{.{.{.{.{.{.{.{.{.{.]._.E.y.0.1.+.> X 7 y H E E E Q Q Q Q Q Q Q Q ",
"~ Q ~ ~ ~ ~ ~ ~ Q Q H s & X > v v.T.).'.[.[.{.{.{.{.{.{.{.{.{.{.{.{.{.{.{.{.{.{.{.{.[.[.'.).T.b.v > X & s H Q ~ ~ ~ ~ ~ ~ ~ ~ ~ ",
"~ ~ ~ ~ ~ ~ Q Q Q G 7 & X 8 4.v.^.].[.{.{.{.{.{.{.{.{.{.{.{.{.{.{.{.{.{.{.{.{.{.{.{.{.{.{.{.`.^.v.4.8 X & 7 G Q Q ~ ~ ~ ~ ~ ~ ~ ",
"~ ~ ~ ~ ~ Q E G p 0 X X e  .C.Q.].{.[.{.{.{.{.{.{.{.{.{.{.{.{.{.{.{.{.{.{.{.{.{.{.{.{.{.{.{.{.].Q.V. .e X X y G Q Q ~ ~ ~ ~ ~ Q ",
"~ ~ ~ ~ ~ Q E s & .   8 e.Z._.].[.{.{.{.{.{.{.{.{.{.{.{.{.{.{.{.{.{.{.{.{.{.{.{.{.{.{.{.{.{.{.{.]._.A.e.8   . * G Q ~ ~ ~ Q Q Q ",
"~ ~ ~ ~ ~ ~ Q G X     w b.^.].{.{.{.{.{.{.{.{.{.{.{.{.{.{.{.{.{.{.{.{.{.{.{.{.{.{.{.{.{.{.{.{.{.{.].^.b.w     X G Q ~ ~ Q Q Q K ",
"~ ~ ~ ~ ~ Q E s X   & l J.].{.{.{.{.{.{.{.{.{.{.{.{.{.{.{.{.{.{.{.{.{.{.{.{.{.{.{.{.{.{.{.{.{.{.{.{.].G.l &   X s E Q Q Q H H H ",
"~ ~ ~ ~ Q E q - . > ;.r.(.[.{.{.{.{.{.{.{.{.{.{.{.{.{.{.{.{.{.{.{.{.{.{.{.{.{.{.{.{.{.{.{.{.{.{.{.{.[.(.r.&.> . - q G H G G G H ",
"~ ~ ~ ~ Q G &     e v.T.`.[.{.{.{.{.{.{.{.{.{.{.{.{.{.{.{.{.{.{.{.{.{.{.{.{.{.{.{.{.{.{.{.{.{.{.{.{.{.`.R.x.e     & G K H H H E ",
"( ( ( ( Q G &   . l G.`.].[.].].].].].].].[.[.{.{.{.{.{.{.{.{.{.{.{.{.{.{.{.{.[.[.[.[.].].].].].].].[.].`.G.j .   % G Q Q Q Q Q ",
"Q Q Q E s q X X l ;.E.]._.~.A.n.n.n.n.n.n.G.(.`.].{.{.{.{.{.{.{.{.{.{.{.{.{.{.].`.(.G.n.n.n.n.n.n.A.(.`.].E.&.l X X q s J Q Q Q ",
"E E E s &     8 e.S._._.T.v.X.c c c c c c X.b.T._.[.{.{.{.[.'.'._._.).'.[.[.[._.T.b.X.c c c c c c X.v.T._._.S.e.8     & s H H H ",
"Q Q Q G X     w k.U.Q.Y.q.%.w : : : : : : h -.q.Y./.].{.[.(.t.3.3.3.3.t.(.`./.Y.q.-.i : : : : : : e %.q.Y.Q.Y.k.w     $ G K K Q ",
"~ ~ Q G $     w k.U.Z.g.n w +             + f b g.S._.'.(.n.j & > > & c L._.S.y.b w +             + w b k.A.U.k.w     $ G Q Q Q ",
"~ ~ Q G $     w k.N.:.{ > +                 + > { 1.E.E.;.c X : ....: j J.E.3.{ > +                 + > { :.N.k.w     $ G Q Q Q ",
"~ ~ Q G $     w k.v.{ i +                     + w | P.J.l .   : =.X.: j J.P...w +                     + f { v.k.w     X G Q ~ ~ ",
"~ ~ Q G X     w k.v.n , o                     o , | P.J.j       : = . j J.J.| ,                       o , n x.k.w     X G Q ~ ~ ",
"~ ~ Q G &     8 d.l.n , +                     o , | P.L.j             j J.P.| , o                     o , { l.d.w     $ G Q Q Q ",
"~ ~ Q G &     8 9.w.b , o                     o , n F.m.j             j m.F.n , o                     + , b w.9.8     & G Q Q Q ",
"~ ~ Q E s 0 X & x I j , o                     + , k X.| :             : | X.k , o                     + , j I x & X 0 a G E E E ",
"~ ~ ( ~ Q G &   . & j j &                   . & j j & .                 . & j j &                     & j j & .   & G Q Q Q Q Q ",
"~ ~ ~ ~ Q G &     > ,.<.r @                 @ r <.,.>                     > ,.<.9 # .             . % r <.,.>     & G Q Q Q Q Q ",
"Q Q Q Q Q G 7 &   > *.5.` z % . . . . . . @ < N p.a.0 + , , O     . , , X 0 a.a.N < @ . . . . . . * z ` 5.*.>   & 7 G E J E J J ",
"Q Q Q Q Q E G p X . > z r.w.t < # # < < < < 3 A h.k.w > >.>.>     > >.>.> w g.h.A 3 < < < # # # < t 9.r.z > . X y G G G H H J Q ",
"Q Q Q Q Q Q Q G X     w d.s.V 1 1 1 1 1 1 6 R 5.S.b.e : n n ; @ @ * { n : e b.S.5.R 6 1 1 1 1 1 1 C s.d.w     X s H H G H K Q Q ",
"~ ~ ~ ~ ~ ~ Q G & .   8 6.i.B 4 4 4 4 4 6 Y h.Y._.G.e   O % # < < # @ O . e G._.Y.l.Y 6 4 4 4 4 4 B i.6.8     & G K H G J Q Q Q ",
"~ ~ ~ ~ ~ ~ Q E s q X & l s 6 4 4 4 4 M $.f.R._.].G.e . @ # 1 3 3 1 # # @ u H.]._.R.f.$.m 4 4 4 4 6 D l & X q s J Q E G H Q Q Q ",
"~ ~ ~ ~ ~ ~ ~ Q Q G - X . @ < 1 4 4 4 S j.T.`.[.].G.e @ < 1 4 4 4 4 1 < 1 Z H.[.{.`.T.h.A 4 4 4 3 < @ . X - G Q Q Q E G H Q Q Q ",
"~ ~ ~ ~ ~ ~ ~ ~ ~ Q G p & . . # 1 4 4 A h.R.`.{.[.L.z < 1 3 4 4 4 4 3 3 3 A H.[.{.`.T.j.A 4 4 1 # . . & s G Q Q Q J G G J Q Q Q ",
"~ ~ ~ ~ ~ ~ ~ ~ ~ ~ Q J 0 - . . < < < t 5.h.Q.`.].E.#.F 6 4 4 4 4 6 S S 6 A H.].`.Q.h.5.t < < # . . - 0 J Q ~ Q Q Q G d H Q Q Q ",
"~ ~ ~ ~ ~ ~ ~ ~ ~ ~ ~ Q E d & . . . . @ 5 T l.T.`._.Z.f.A 4 6 6 6 A p.a.C A S._.T.l.Y 5 @ . . . . & s E Q ~ ~ ~ Q Q H d G Q Q Q ",
"~ ~ ~ ~ ~ ~ ~ ~ ~ ~ ~ ~ Q E p 7 .       # 9 } 2.I.R.U.c.S m @.$.$.6.B.c.A A M.Z.2. .9 #       . 7 p E Q ~ ~ ~ ~ ~ Q J d G Q Q ~ ",
"Q Q Q Q Q Q Q Q Q Q Q Q Q Q Q G & .         X e 6.c.N.d.Z N 9.v.M.M.N.d.Z C 7.7.e X         . & G K Q Q Q Q Q _ _ [ ~ d G H Q Q ",
"Q Q Q Q Q Q Q Q Q Q Q Q E E Q H s q X         $ u x x z * * l v v v v l * * u u X         X q s H Q Q Q Q Q Q _ [ [ ) G G H Q Q ",
"Q Q Q Q Q Q Q Q ~ ~ ] ) P G G G s y X   . . . . .                             . . . . .   $ a G H Q Q Q Q Q Q Q Q Q Q E E Q Q Q ",
"Q Q Q Q Q Q Q ~ _ _ [ ] E d G s - X   . < 1 3 2 @                             @ 2 3 1 < .   X - G Q Q Q Q Q Q Q Q ~ Q Q Q ~ Q Q ",
"~ ~ ~ ~ ~ ~ ~ ~ ~ ~ ~ ~ E s y 0 .   @ # 3 m R #.W z * @ @ @ @ @ @ @ @ @ @ * z U o.R 6 3 # @   . 0 s E Q Q Q Q Q Q Q Q ~ ~ ~ ~ ~ ",
"Q Q Q Q ~ ~ ~ ~ ~ ~ Q Q P a &     . 2 6 m Y b.K.Z.d.F 6 6 6 3 3 3 3 3 3 6 F d.Z.K.b.Y 6 6 2 .     & s L L L L E ~ Q Q ~ ~ ~ ~ ~ ",
"Q K Q Q Q ~ ~ ~ ~ Q Q Q G p X     * O.5.7.w.3.0.B.Z.f.a.a.5.N 4 4 4 4 C 5.d.Z.Z.0.3.w.7.5.O.*     X a G G G H Q Q Q ~ ~ Q Q Q Q ",
"K Q Q Q Q ~ ~ ~ Q Q Q E G p X     8 g.U.^.G.l l x.R._.`._.H.R C B B C @.Y._.R.v.l l G.^.U.g.8     $ G Q Q Q Q Q Q ~ ~ ~ ~ Q Q Q ",
"Q Q Q Q ~ ~ ~ ~ Q E G P G a $     8 g.T._.G.j e C._.].{.{._.D.V.V.V.V.H._.]._.C.e j G._.T.g.8     & G Q Q ~ ~ ~ ~ ~ ~ ~ ~ ~ Q Q ",
"~ ~ ~ ~ ~ ~ ~ ~ Q Q Q ~ E s 7 &   > 1.g.n.t.w j G.[.{.[.`.^.G.m.m.G.^._.].{.[.G.j w t.n.g.1.> . & 0 H Q ~ ~ ~ ~ ~ ~ ~ ~ ~ ~ ~ ~ ",
"~ ~ ~ ~ ~ ~ ~ Q Q Q Q ~ E d d p X O > 8 w > + g G.[.{.`.Q.b.v w w v b.Q.`.{.[.G.g O > w 8 > X & s H Q ~ ~ ~ ~ ~ ~ ~ ~ ~ ~ ~ ~ ~ ",
"~ ~ ~ ~ ~ ~ Q Q Q Q Q ~ E G G G q 7 .         g G.[.{.].^.b.e     w k.T.`.{.[.G.g         O 7 q H Q Q ~ ~ Q Q Q Q Q Q Q Q Q Q Q ",
"Q Q Q Q Q Q Q Q Q J J H G G Q Q E G - .       e n.).[.{.].A.e     8 k.R.`.[.).n.e         & s G H H Q Q Q Q Q Q Q Q Q Q Q Q Q Q ",
"Q E P H H H H H H H G G d G E Q Q H p 0 X     & { 3.E.].].G.e     8 g.T._.E.3.{ &     . 0 a G P P H H P P Q Q Q Q Q Q Q Q Q Q Q ",
"[ E G G H H P H Q Q E E E Q Q Q Q Q E G - .     + e u.L.L.u.w     > 8.b.G.u.e +     X - G ' ` [ ] ( Q Q Q Q Q Q Q Q Q Q Q Q Q Q ",
"] E H H E Q Q Q Q Q Q Q Q Q Q Q Q ~ ~ Q G p X     + e j j e X     X w e j e +     X p G E ~ E ] _ ~ ~ ~ ~ ~ ~ ~ ~ ~ ~ ~ ~ ~ ~ ~ ",
"E L P Q Q Q Q ~ ~ ~ ~ ~ ~ ~ ~ ~ ~ ~ ~ ~ Q H 0 -           . - - - - .           = 0 H E P E L Q Q Q Q ~ ~ ~ ~ ~ ~ ~ ~ ~ ~ ~ ~ ~ ",
"' E E Q Q Q Q ~ ~ ~ ~ ~ ~ ~ ~ ~ ~ ~ ~ ~ ~ Q E s $         & s J J s &         & s E Q Q Q Q L H J Q Q Q Q Q Q Q Q Q Q Q ~ ~ ~ ~ ",
"E E E Q Q Q Q Q ~ ~ ~ ~ ~ ~ ~ ~ ~ ~ ~ ~ ~ ~ Q H q 0 0 0 0 y E Q Q E q 7 7 7 7 y H Q Q Q Q Q G G G G G P G P E E Q E E Q ~ ~ ~ ~ ",
"[ E E Q Q Q ~ Q ~ ~ Q Q Q Q Q Q Q Q Q ~ ~ ~ ~ Q Q Q Q Q Q Q Q ~ ~ Q Q J J J E Q Q Q Q Q Q K G L G G L ' Q E E E Q Q E Q Q ~ ~ ~ ",
"[ E E ~ ~ ~ ~ ~ ~ ~ ~ Q Q E P E Q ~ ~ ~ ~ ~ ~ ~ ~ ~ ~ ~ ~ ~ ~ ~ ~ ~ ~ ~ ~ ~ ~ ~ ~ ~ Q Q Q J E [ ~ Q ~ _ ( ~ ~ ~ Q ~ ~ ~ ~ ~ ~ ~ ",
"] E E Q Q Q ( Q ~ ~ ~ ~ Q Q Q Q Q ~ ~ ~ ~ ~ ~ ~ ~ ~ ~ ~ ~ ~ ~ ~ ~ ~ ~ ~ ~ Q Q Q ~ ~ Q Q Q E E _ ( Q ( ~ ~ ~ ~ ~ ~ ~ ( ~ ~ ~ ~ ~ "
};
