/* XPM */
static char *_059107b6c734e389df1057c1cd1345769RO3mLJkX5DhqRl[] = {
/* columns rows colors chars-per-pixel */
"64 64 48 1 ",
"  c #252323",
". c #2A2625",
"X c #2E2827",
"o c #2E2729",
"O c #2E2828",
"+ c #302727",
"@ c #312927",
"# c #302729",
"$ c #352B2C",
"% c #392D2E",
"& c #3B312F",
"* c #3B2F30",
"= c #3D3131",
"- c #413335",
"; c #403434",
": c #413534",
"> c #433535",
", c #433636",
"< c #443635",
"1 c #473936",
"2 c #443738",
"3 c #473839",
"4 c #483938",
"5 c #483A3A",
"6 c #4B3A3A",
"7 c #4A3B3B",
"8 c #4C3C3B",
"9 c #4B3B3C",
"0 c #4B3C3C",
"q c #4D3D3D",
"w c #503F3F",
"e c #4F403F",
"r c #52413F",
"t c #4F3F40",
"y c #513F40",
"u c #524141",
"i c #554343",
"p c #564443",
"a c #574443",
"s c #544344",
"d c #574544",
"f c #5A4746",
"g c #5B4847",
"h c #5A4748",
"j c #5B4949",
"k c #5C4948",
"l c #5F4C4B",
"z c #604D4C",
/* pixels */
"q3=%$@XX..XXXX@###@####$<riiiyq1$XXX..XXXXXX#%%$$$%8iddfhjjfsq;=",
"q5=%$+                 .&wuuuwq1@                 .3idddddsuu9<-",
"u9;$$@....#@@$%%%%%%==#X%155551;#... ..O$$@@$$O...o;quduq5555533",
"iq=X.O#$$%3qqqqqqqeufd;$#XXXXXXX$$$$$$$<qqqqq5;$$#$#O;uw5;==;<5q",
"i0=X #%%%=quuuuuuuifkk5*#      .$%%%%%*5uuuuuu5%%%%o.&qq<=%%=<0q",
"5&$O#=3555wuiiiiiiiiffiu2#ooooO$;555555wuiiiiuq5553*#$&&;%%%=;qw",
"&..#%5uuruiiiiiiiuuiiikky%$$$$$=0ruuuuuiiiiiiirruuw;%#.X&%$%*;qw",
"% .*-8uiiipppiiiiiiiiifkw%$$$%=;quiiifffdpiiiiiiiiu5;%X.%$$%*;qw",
"$ O5quiiiiklfiiiiiiiiiii5%$$%-qwriiiikzzlgiiiiiiiiurq3%#XX#%*<qw",
"# @quiiiipkzgiiiiiiiiiiu5%$$%;uiiiiipkkkkgiiiiiiiuwuu8=%X +%%;qw",
"X #quiiiiiffpiifgpiiiiiu5%$$%;riiiiuw5555yffpidgp5<8rw5<%o##$;qw",
"X #quiiiiiiiiipkzfiiiiiu5%$$%;riiiii8=%%%3kzfiflf-*2rrrq=$o X;qw",
"X #qupppiiiiiiikkpiiiipp5%$$%;riiiiiq;=%%;udffddu;-5uiiw;$o .;qw",
"X @qiglgiiiiiiiipiiiiigky%$$%;riiiiiuq9=%%=<dku;;5qruiir;$o .;qw",
"X O5ukzkiiiiiiiiiiiiipkkq%$$%;riiiiiiuw;%$%=ujq%=quiiiir;%# .<wr",
"X X=3uffiiiiiiiiiiiiffr9;%$$%<riiiiiiiu5<=%%<5;%*qiiiiiu5<* X1wu",
"X .$%5iiiiiiiiiiiiipkk3%%$$$%<riiiiiiiurr3%$%%%%&8riiiiuuw;.X5ru",
"X  $%2qwriiiiiiiirridi;%$$%%=5riiiiiiiiip5%$$$%*;qriiiiiiu;o#1qw",
"@ .#$%=<wiiiiiiiirr8;=%$$$%2qwuiiiiiiiifkt%$$%-9qriiiiiiiu5%##%;",
"@  #$$%-qrriiiiiirw5%$$$$$*5uuiiiiiiiiigku*$$%;wrriiiiiiiu5%$. &",
"@ .#%$$*;5quiuiffq<;%$$$$$%5uiiiiiiiiffiq2%$$$=<5ruiiiiiffq%$. &",
"@ .#$$$$%=8uiupkk5%%$$$$$$%5uiiiiiiidkk5%%$%%$$%=qiiiiiikzu%$. &",
"@.X##$$$$%3qqqrfd3$$$$$$$$%5riiiiiipdfd;%%%***%$*5qruiiikzu%$. &",
"$$#..#$$$$*====--%$$$$$$$$%5riiiiifkd<;%%=5555;%%*;5uiiikzu%$. &",
"$$#  X$$$$$$$$$%%$$$$$$$$$%5uuiiiifki=%$%;wurr1%%$%2uiiikzi%$. &",
"$$#  X$$$$$$$$$$$$$$$$$$$$%;5qdfffiq5%%=;5riir8<;;<quiiikzi%$. &",
"$$#. O$$$$$$$$$$$$$$$$$$$$$%%5kzzk9=%$%3wruiiirrrrruiiiikzu%$. %",
"$$$X.##$$$$$$$$$$$$$$$$$$$$$%3fkkf3%%%=5uiiiiiiiiiiiiiiikzu%$. $",
"$$$$$X.X$$$$$$$$$$$$$$$$$$$$$=;<<;=%%55wriiiiiiiiiiiiiiikzu%$. @",
"$$$$$X .#$$$$$$$$$$$$$$$$$$$$$%%%%$$=qrriiiiiiiiiiiiiiiikzu%$. +",
"$$$$$$###O#$$$$$$$$$$$$$$$$$$$$$$$$$=qriiiiipfpiiiiiiipfkzu%$. X",
"$$$$$%%%..#$$$$$$$$$$$$$$$$$$$$$$$$$=quiiiiiklfiiiiiipkzzzu%$. @",
"$$$$$%%=#O##$$$$%%%%$$$$$$$$$$$$$$$$=wiiiiiikzfiiiiiupzzzzu%$. #",
"$$$$$%%===#.o$$$%-5<%$$$$$$$$$$$$$$%-djdiiiipfpiiiiiipzzzzu%$. $",
"$$$$$$%*==O X$$$%2w5%$$$$$$$$$$$$$$$;fkfiiiiiiiiiiiiipzzzzu%#..%",
"$$$$$$$%%%#O####%-53;=%$$$$$$$$$$$$$=tipfffffpppffffppiiii5$#%=1",
"$$$$$$$$%$$%%..#$%%;qq=$$$$$$$$$$$$$%*;ukzzzzzzzzzzzzd;***$.X5qr",
"$$$$$$$$$$$%%  #$$$=qw-%$$$$$$$$$$$$$$%qkkkkkkkkkkkkku*$$$o X5ui",
"$$$$$$$$$$$%%  #$$$=qw-%$$$$$$$$$$$$$$%;3555555555555;%$$$o X5ui",
"$$$$$$$$$$$%$  #$$$=qq-$$$$$$$$$$$$$$$$%%%%%%%%%%%%%%%$$$$o X5ui",
"$$$$$$$$$$$%%OO####%;2*##$$$$$$$$$$$$$$$$$$$$$$$$$$$$$$$$$o X5ui",
"$$$$$$$$$$$$%%%X    ..  X$$$$$$$$$$$$$$$$$$$$$$$$$$$$$$$$$o X5ui",
"$$$$$$$$$$$$$$$.        .##$%$$$$$$$$$$$$$$$$$$$$$$$$$$$$$o X5ui",
"$$$$$$$$$$$@@XXXo.......X.X#$$$$$$$$$$$$$$$$$$$$$$$$$$$$$$o X5ui",
"$$$$$$$$$$X   .#$$$$$$$$o  #$$$$$$$$$$$$$$$$$$$$$$$$$$$$$$o X5ri",
"$$$$$$$$$#X   X%******%$#..o##$$$$$$$$$$$$$$$$%****%$$$$$$o X8ui",
"$$$$$#X..X####%3qqqqq5=$$#O. X#$$$$$$$$$$$$$$%-5qq0;%$$$$$o O8ui",
"$$$$$X    #%%%=quuuuuw-%%$#  .#$$$$$$$$$$$$$%%<uiur<%%$$$$o O8ui",
"$$$#@X...O=<<<5wiiiiir5<=%#   Xo#$$$$$$$$$$%=<9uiiuq52%$$$o O5ui",
"$$$..O$$$%5ruuuiiiiiirrw3%#    .#$$$$$$$$$$%5uuuiiifku=$$$o X5ui",
"$$$X.O$%%=quiiiiiiiiirwq<%#   .X##$$$$$$$$$%3qwuiidfft*$$$O X5ui",
"$XX##$$=5qruiiiiiiiiiw<=%$#. X%%X.O$$$$$$$$$%=5upkkq;=%$$$o X5ui",
"@ .#$$%;qruiiiuuuuuruw-$$$#. #=;#.o#$$$$$$$$$%;ypkk5%$$$$$O.#8ui",
"@ .#$$$=<5wuiur5133352=$$$$X.#$=;;%OO#$$$$$$$$=<5qq;%$$$#O%=<wui",
"@  #$$$$%=quiuq=%%%%%%$$$$$$#o.#qd;..#$$$$$$$$$%%%%%$$$$. &qruii",
"@  #$$$$$%3qqq5*$$$$$$$$$$$$$o Xej5@###$$$$$$$$$$$$$$$####;riiii",
"@  #$$$$$$*====%$$$$$$$$$$$$$o X0fpr3#.#$$$$$$$$$$$$$#.X;8riiiii",
"@ .#$$$$$$$$$$$$$$$$$$$$$$$$$o X5dddq#.O$$$$$$$$$$$$$#.X5ipppppp",
"#XXXOOOOOOOO#$$$$$$$$$$$$$$Oo. X;qqwq;=%OooOOOOOOOOOO%=1ufffffff",
"$$#.        X$$$$$$$$$$$$$$.   X=;<<5qr&.            =pgkkkkkkkk",
"$$#.  ..    X##############.   X%%%%<qu<@#OOO#######$3lzzzzzzzzz",
"$$$###$$#####.............X####$$%%%;qippppiippdpppddjzzzzzzzzzz",
"$$$$$$$$$$$$#             .$$$$$$$%%-0pjzzzzzzzzzzzzzzzzzzzzzzzz",
"$$$$$$$$$$$$#X............X$$$$$$$$%=5edhjkkjjjjjjjjjjjjjjjjjjjj"
};
