/* XPM */
static char *d313c2d79ec94389db292e5d0d484a29h99oZDsv3OCiZ6vS[] = {
/* columns rows colors chars-per-pixel */
"64 64 219 2 ",
"   c #241915",
".  c #2D1F17",
"X  c #271C19",
"o  c #291D19",
"O  c #2E2119",
"+  c #352416",
"@  c #3A2615",
"#  c #3D2814",
"$  c #34241B",
"%  c #3A261B",
"&  c #3D291C",
"*  c #362620",
"=  c #392620",
"-  c #3D2A22",
";  c #452C0D",
":  c #4A2F0A",
">  c #4E3007",
",  c #4D3109",
"<  c #543303",
"1  c #593702",
"2  c #5D3903",
"3  c #54350D",
"4  c #5D3B0A",
"5  c #442D13",
"6  c #462C14",
"7  c #432C1C",
"8  c #4B2E1E",
"9  c #4B3214",
"0  c #46311B",
"q  c #4C321D",
"w  c #4F381D",
"e  c #523613",
"r  c #553A15",
"t  c #5A3D13",
"y  c #51331E",
"u  c #523A1B",
"i  c #593E1A",
"p  c #623C04",
"a  c #633F0B",
"s  c #432D24",
"d  c #4A2F21",
"f  c #4D3222",
"g  c #493626",
"h  c #473028",
"j  c #4C332A",
"k  c #553623",
"l  c #583724",
"z  c #533924",
"x  c #5A3927",
"c  c #51372C",
"v  c #53392E",
"b  c #5C3C2A",
"n  c #573B30",
"m  c #5C3D32",
"M  c #5F4116",
"N  c #5D421C",
"B  c #6D4504",
"V  c #63400E",
"C  c #6A440B",
"Z  c #6C4609",
"A  c #754A04",
"S  c #754A06",
"D  c #7A4E05",
"F  c #724B0D",
"G  c #7B520C",
"H  c #634414",
"J  c #684714",
"K  c #6C4914",
"L  c #614519",
"P  c #66491A",
"I  c #6B4C19",
"U  c #714D13",
"Y  c #6F511D",
"T  c #755315",
"R  c #7B5412",
"E  c #7D5B16",
"W  c #72521A",
"Q  c #7D5A1A",
"!  c #5A462F",
"~  c #664D27",
"^  c #6F5529",
"/  c #795A26",
"(  c #624236",
")  c #674538",
"_  c #6A473A",
"`  c #6E493B",
"'  c #734C3E",
"]  c #685233",
"[  c #765D35",
"{  c #774F41",
"}  c #784F40",
"|  c #7A5041",
" . c #776141",
".. c #845505",
"X. c #875907",
"o. c #8C5B06",
"O. c #81560E",
"+. c #85580C",
"@. c #8B5C0B",
"#. c #915E06",
"$. c #915F08",
"%. c #835C14",
"&. c #835C15",
"*. c #946307",
"=. c #9A6507",
"-. c #9D6807",
";. c #94630C",
":. c #9A670A",
">. c #9B680C",
",. c #8D6212",
"<. c #8E6619",
"1. c #946714",
"2. c #936A15",
"3. c #9C6D12",
"4. c #9F7013",
"5. c #A36C07",
"6. c #A56D09",
"7. c #A6720E",
"8. c #AB7209",
"9. c #AE790C",
"0. c #B57B0A",
"q. c #B57C0A",
"w. c #A57413",
"e. c #A67517",
"r. c #AC7B14",
"t. c #AB7D19",
"y. c #B47F15",
"u. c #946E2C",
"i. c #A97B24",
"p. c #875948",
"a. c #91674E",
"s. c #8C754B",
"d. c #B7800E",
"f. c #BB820C",
"g. c #B58314",
"h. c #BD8614",
"j. c #BD871C",
"k. c #B78726",
"l. c #A8843F",
"z. c #B78A35",
"x. c #C2860C",
"c. c #C58A0C",
"v. c #CB8F0C",
"b. c #CE910D",
"n. c #D2940E",
"m. c #D6980E",
"M. c #DC9D0E",
"N. c #C58D15",
"B. c #C38E1D",
"V. c #CB9314",
"C. c #C7921D",
"Z. c #CD9419",
"A. c #D59B13",
"S. c #D49A17",
"D. c #DA9D13",
"F. c #DFA00F",
"G. c #DDA217",
"H. c #E2A30F",
"J. c #E4A513",
"K. c #ECAC13",
"L. c #E6A918",
"P. c #E7AB1C",
"I. c #F3B315",
"U. c #F4B51C",
"Y. c #F6B81F",
"T. c #C99727",
"R. c #CB9626",
"E. c #C39435",
"W. c #D9A429",
"Q. c #D9A83A",
"!. c #E3AA28",
"~. c #F2B522",
"^. c #F4B826",
"/. c #F4BA2D",
"(. c #E6AF31",
"). c #E8B43A",
"_. c #F5BB32",
"`. c #F2BD3B",
"'. c #F6C03C",
"]. c #998255",
"[. c #B4975E",
"{. c #B19867",
"}. c #CC9E40",
"|. c #D6A845",
" X c #D3AC58",
".X c #DCB257",
"XX c #E7B749",
"oX c #E4B95A",
"OX c #DAB564",
"+X c #CBB07C",
"@X c #E8BF64",
"#X c #F6C346",
"$X c #EBC15A",
"%X c #F7C957",
"&X c #F7CD67",
"*X c #F9D16D",
"=X c #EFC972",
"-X c #F9D274",
";X c #F9D67D",
":X c #D1BD93",
">X c #DDC795",
",X c #E6CB8B",
"<X c #F8D580",
"1X c #F8D787",
"2X c #FADA8C",
"3X c #F8DC97",
"4X c #FADE9B",
"5X c #FBE09F",
"6X c #F1DBA8",
"7X c #FBE2A5",
"8X c #FBE4AB",
"9X c #FCE7B5",
"0X c #FCE9BB",
"qX c #FBECC9",
"wX c #FCF1D6",
"eX c #FDF3D9",
"rX c #FDF6E3",
"tX c #FEF8EB",
"yX c #FEFBF3",
/* pixels */
"k k 8 % $ $ % 7 k k k k k k l l k l l l k k k k k k 7 $ $ & f k k f & $ $ 7 k k k k k k k k k k k k k k k 8 7 8 % % $ $ % 8 k k ",
"7 7 & 0 Y [ ! 7 d k k k k k k k k k l k k k k k f 8 & 7 0 & 7 d d 7 & 0 7 & d k k k k k k k k k k k l l x f 7 7 & ! [ Y 0 7 k k ",
"7 7 & P T.OX].g 7 f k k k k k k k k k k f d f f d & & M H 7 & - - & & H M & & f k k k k k k k k k k k k x f 7 % g ].OXT.P 7 7 k ",
"k 7 P k.$X5X:Xs.g f k k k k k k k k k k k k f s - & i T R H f  . .q H R T t & & 7 s k k k k k k k k k k f 7 7 d s.:X5X$Xk.P 7 f ",
"q 7 Q W.*X0X6X[.g f k k k k k k k k l k k k & & 7 & J E %.W ] {.{.~ T %.%.J & 7 & & k k k k k k k k k k k s 7 g [.6X0X*XW.Q & & ",
"& & K h.).-XOXu.0 & 8 k k k k k k k l l k k 7 L W 0 0 K U ~ {.6X,Xk.P U P q 0 W L 7 k k k k k k k k k x b f % 0 u.OX-X).h.K % $ ",
"% 9 K 1.Z.|.z.R t 7 7 f k k k k k k k l k k 7 N / [ / I I u.>XwX4XW.<.I ^ [ W Q N 7 k k k k k k f q f f f & & t R z.|.Z.1.K 9 % ",
"& T R H >.w.R H @.r & 7 k k k k k k k k k k 7 & ]  XW.<.Q Q.qXtX4X^.A.Q s..XT.I & 7 k k k k k k k f f d % $ r @.H R w.>.H R T & ",
"& 1.7.R K J U ,.h.@.r & & s s s s s s 7 & & % $ ~ E.!.g.t.).qXqX;XY.K.t.k.).B.N $ % 7 s s s s s s s s s & e @.h.,.U J K R 7.1.& ",
"7 r.n.6.L i %.k.!.h.T 7 $ % % % % % % % % % % & i e.Z.N.N.`.9X7X%XU.K.N.N.S.e.i & % % % & & & & & % % $ 7 T h.!.k.%.i L 6.n.r.7 ",
"7 r.K.F.V.C.|.=X4X).y.U 7 3 4 4 4 4 4 4 4 4 4 4 4 N <.4.g.(.;X%X^.I.K.g.4.<.N 4 4 4 4 4 4 4 4 4 4 4 3 7 U y.).4X=X|.C.V.F.K.r.7 ",
"7 t.~._.`.%X<X7X4X).x.O.9 Z X.*.*.*.*.*.*.*.*.X.C 0 E w.h.S.XX(.L.G.A.h.w.E 0 C X.*.*.*.*.*.*.*.*.X.Z 9 %.x.).4X7X<X%X`._.~.t.7 ",
"7 t.`.*X;X0XwX8X).h.8.%.i 1.Z.P.P.P.L.L.L.J.J.c.@.u <.N.N.e.k.j.j.g.e.N.N.<.u @.N.L.P.P.P.P.P.L.J.V.;.r O.8.h.).8XwX0X<X*X`.t.7 ",
"7 t.^.#X%X-X<X$XC.%.K / ].+X,X2X2X1X&X%X#XU.I.J.9.H P %.2.i.}.W.A.V.e.2.%.P H r.(.%X1X2X2X2X<X%X#X).h.%.K K %.C.$X<X-X%X#X/.t.7 ",
"7 e.K.I.K.L.G.Z.>.M z s.,XqXrXtXyXtX9X3X-X_.~.U.b.G e 0 L i. XQ.D.V.e.L 0 e D V.#X3XeXrXtXtXrX7X2X&X!.y.I 9 M >.Z.G.L.K.I.K.e.7 ",
"& ,.n.J.f.%.I L M R l.OX1X7X8XqXyXyXrXeX0X-X&X'.D.5.@.F t N ] ~ I P i t F @.5.D.^.%X4X8XwXyXyXrXwX8X*XoXT.w.R M L I %.f.J.n.,.& ",
"& K 3.r.,.H L I T r.Q.&X&X&X*X2X9X0X0X0X7X-X&X'.J.x.8.o.Z r r r r r r Z o.8.x.J.I./.%X*X4X0X0X0X0X4X*X%X/.D.9.T I L H ,.r.3.K % ",
"% & 0 9 9 O.d.A.D.J.K.~.~.~.~.^././._././.~.~.U.K.H.q.6.5.>.>.>.>.>.>.5.6.0.H.K.I.I.U.~././._._././.~.U.I.K.J.D.A.d.O.9 9 7 % + ",
"7 % # 9 3 @.f.b.n.n.n.n.n.n.n.n.n.n.n.n.n.n.n.n.n.c.,.*.8.8.8.8.8.8.8.8.;.,.c.n.n.n.n.n.n.n.n.n.n.n.n.n.n.n.n.n.b.f.@.3 9 # $ 7 ",
"k & 5 p B o.5.6.6.6.6.6.6.6.5.5.6.6.6.6.6.6.6.6.6.;.K R :.5.5.5.5.5.5.:.R K ;.6.6.6.6.6.6.6.6.6.5.5.6.6.6.6.6.6.6.5.o.B p 5 & k ",
"k & 5 1 2 B B B B B B B B B V V B B B B B B A B C H 2.%.H B B B B B B H %.2.H C B B B B B B A B V V B B B B B B B B B 2 1 5 & k ",
"d & # : , , , , , , , , , , t t , , , , , , , , ; 9 2.W 5 : , , , , : 5 W 2.9 ; , , , , , , , , t t , , , , , , , , , , : # % 8 ",
"k 7 % $ $ + $ $ % % $ $ $ 5 <.2.7 % $ $ + + $ $ $ % 0 & $ $ $ $ $ $ $ $ & 0 % $ $ $ $ $ $ $ % 7 2.<.5 $ $ + $ $ $ $ $ $ $ % 7 q ",
"k f 7 $ $ $ @ 5 5 5 5 5 5 5 T W 7 r 7 $ O o O $ & t & O o o o o o o o o O & t & $ O o O $ 7 r 7 W T 5 5 5 5 5 5 5 @ $ $ $ 7 8 k ",
"k k q 7 % $ 5 < < < < < < < 5 & 0 R r $ O X O $ 9 R 9 o                 o 0 R 9 $ O X O $ r R 0 & 5 < < < < < < < 5 $ % 7 q k k ",
"k k k f d % ; p p p p 2 < < , 5 & 9 7 @ # + # # & 9 + o o o o o o o o o o + 9 & # # + # @ 7 9 & 5 , < < 2 p p p p ; % d f k k k ",
"k k k k k & 9 B A A A B 2 < < ; $ $ $ @ ; + ; # $ $ . O $ $ $ $ $ $ $ $ O . $ $ # ; + ; @ $ $ $ ; < < 2 B A A A A e & k k k k k ",
"k k k k k & 9 A =.5.5.#.B 1 < ; $ O O $ $ $ $ $ O $ = - - - - * * - - - - = $ O $ $ $ $ $ O O $ ; < 1 B #.5.5.5.:.H 7 k k k k k ",
"k k k k k 7 6 C w.E.T.0...p < ; $ $ $ $ $ $ $ $ $ * - s s s s * * s s s s - $ $ $ $ $ $ $ $ $ $ ; < p ..0.c.x.8.#.t 7 k k k k k ",
"k k k k k 7 % r e..XXXS.5.B < ; $ - s s s s s s s s s s s s s = = s s s s s s s s s s s s s - $ ; < B 5.A.K.M.8.D 9 & f d d f d ",
"k k k k k f 7 9 O.k.XXQ.7.B < ; $ - h j j j j j j j j j j j j s s j j j j j j j j j j j j h - $ : < B 7.Q._.J.8.H 5 7 k k k k k ",
"k k k k k k s 5 V 3.|..Xw.B < : @ % j v v v v v v v v j j j j s s j j j j v v v v v v v v j % @ : < B w..XXXA.:.e & 7 k k k k k ",
"k k k k k f 7 % 9 ,.|..Xe.A 2 < : % j v v v v v v v v s $ $ $ $ $ $ $ % s v v v v v v v v j % : < 2 A e..X|.9.A 6 & 8 f q f q q ",
"k k k k k f 8 & 7 R z.|.z.,.B < > % h v n ( ( ( ( m j N W T T T T T T W N j m ( ( ( ( n v h % > < B ;.E.XXQ.>.4 # % 7 7 8 8 q k ",
"k k k k k k k f & a ;.E.oXt.D < > % h v m ' ' ' ' _ z 2.A.A.A.A.A.A.A.A.2.z _ ' ' ' ' m v h % > < D i.oX`.V.@.6 % 7 8 7 8 y k k ",
"k k k k k k k f & ; G j.(.y.D < > % - v _ { | } _ b <.g.r.%.E E E E ,.r.g.<.b _ } | { _ v - % > < D k.@XQ.7.F & 7 q 8 7 q k k k ",
"k k k k k k k f 7 & K q.D.f...1 > # & c ' } | { ( u g.f.T @ O O O O @ T f.g.u ( { | } ' c & # > 1 D j.oXT.@.4 & f k f 7 8 k k k ",
"k k k k k k l k f & t X.f.n.>.p < , # s ( ' | { ( u g.1.5 o X X X X o 5 1.g.u ( { | ' ( s # , < p ..y.!.h.G 5 & f k f 7 8 k k k ",
"k k k k k l l l k & ; F 9.M.9.A 1 < # - v ' } { ( u g.%.$ X o o o o X $ %.g.u ( { } ' v - # < 1 B =.c.n.8.J & 7 k q 7 7 q k k k ",
"k k k k k l l l k 7 % t 8.M.x.X.2 < # % j ` } { ( w g.%.+ o o o o o o + %.g.w ( { } ` j % # < 2 X.f.M.0...e & f k k 7 & 8 k k k ",
"k k k k k k k k k f & 9 @.f.0.#.p < : # s ` } { ( q 3.;.t O o o o o O t ;.3.q ( { } ` s # : < p #.c.F.8.C 6 7 k k k 8 & 7 k k k ",
"k k k k k k k k k k 7 6 C -.8.*.B 1 < ; s _ { { ) f O.*.F 5 O X o O 5 F *.O.f ) { { _ s ; < 1 B =.x.m.5.r & 7 k k k 8 & 7 k k k ",
"k k k k k k k k k k 7 & e *.8.6.o.p < ; - m ' } ' ( y 9 t F # o o # F t 9 y ( ' } ' m - ; < p o.6.9.8.G 9 7 k x x b k & 7 8 k k ",
"k k k k k k k k k k 8 & 7 O.5.8.=.p < ; % j _ } } ' j % 9 F r @ @ r F 9 % j ' } } _ j % ; < p =.8.8.:.a 5 7 k x b b c 7 7 8 k k ",
"k k k k k k k k k k x d & a #.8.-.B < ; $ s ( } | | ` j $ 9 G r r G 9 $ j ` | | } ( s $ ; < B -.8.8.@.9 % 7 k k k k k f f k k k ",
"k k k k k k k k x x x f % 9 +.0.q.A 1 , 5 & ( } p.p.| j + , t 5 5 t , + j | p.p.} ( & 5 , 1 A q.q.-.A 7 7 f k k k k k k k k k k ",
"k k k k k k k k k k k f % & U q.v...p < : & ( ' p.a.} f 5 3 @ o o @ 3 5 f } a.p.' ( & : < p X.n.x.$.4 & d k k k k k k k k k k k ",
"k k k k k k k k k k k k 7 % 4 *.0.=.B < , & c _ | | v 9 , # . o o . # , 9 v | | _ c & , < B 6.M.x.O.5 $ & s s f k k k k k k k k ",
"k y k k k k k k k k k k 7 $ 9 D 6.5.A < , % h ( ' ' c 9 , # # # # # # , 9 c ' ' ( h % , < A 8.n.0.F % $ & 7 8 k k k k k k k k k ",
"y k k k k k k k k k k f 7 + + H 5.5.A < , $ - m ' { ` f 5 4 2 2 2 2 4 5 f ` { ' m - $ , < A 6.8.X.4 & d k k k k k k k k k k k k ",
"k k k k k k k k k f 7 d 7 % % r @.-.D 2 < ; & v ' | ' ( f 9 : : : : 9 f ( ' | ' v & ; < 2 D 6.6.F 6 & k k k k k k k k k k k k k ",
"k k k k k k k k k k k l f 7 & 6 F =...p < > # v ' } } ' m = $ $ $ $ = m ' } } ' v # > < p ..6.-.t % 7 k k k k k k k k k k k k k ",
"k k k k k k k k k k k l f 7 % @ r ;.=.D 1 < # j ( ' | } ' ( m c c m ( ' } | ' ( j # < 1 D =.5...9 & f k k k k k k k k k k k k k ",
"k k k k k k k k k k k k f 7 & % 0 @.5...1 < # s n ' | | } { ' m m ' { } | | ' n s # < 1 ..6.-.C 6 7 k k k k k k k k k k k k k k ",
"k k k k k k k k k q q 8 7 7 f 7 7 C #...2 < # % j ' } | | } ' c c ' } | | } ' j % # < 2 ..6.;.9 % 7 f k k k k k k k k k k k k k ",
"k f d 8 8 8 8 8 8 8 7 7 & 7 f 7 % e +.X.p < ; & s ( ' } | ' ) j j ) ' | } ' ( s & ; < p X.=.G 6 % 7 8 d d k k k k k k k k k k k ",
"m f 7 8 8 8 d 8 k k f f f k k 8 % 7 G X.B < < 5 - v _ ' ' ` n s s n ` ' ' _ v - 5 < < B X.o.a 7 d k k k k k k k k k k k k k k k ",
"x f 8 8 f k k k k k k k k k k k 7 & a A p 1 < ; $ - j v v c j = = j c v v j - $ ; < 1 p A C 6 & f k k k k k k k k k k k k k k k ",
"f s d k k k k k k k k k k k k k f & , 4 4 , : # $ $ = - - - - * * - - - - = $ $ # : , 4 4 , $ % q k k k k k k k k k k k l l k k ",
"z f f k k k k k k k k k k k k k f % $ @ @ + + $ $ $ $ $ $ $ $ $ $ $ $ $ $ $ $ $ $ + @ @ % $ $ 7 q k k k k k k k k k k k l k k k ",
"f f f k k k k k k k l l l l k k k % $ $ # 5 5 5 5 5 5 5 5 5 5 5 5 5 5 5 5 5 5 5 5 5 5 # $ $ $ % 7 7 s d 8 d f f k f f k k k k k ",
"b f f k k k k k k k k k k k k k f 7 $ # , < 2 p p p p p p p p p p p p p p p p p p 2 < , # $ $ & & 7 s c k f f f k k f k k k k k ",
"b f f k k k k k k k k k k k d f k f % $ # # 5 5 5 5 5 5 5 5 5 5 5 6 6 5 5 5 5 5 5 5 # # $ % s z k k k l l k k k k k k k l k k k ",
"x f f k k k l k k k k k k k k k k k & $ $ $ $ $ $ $ $ $ $ $ $ $ $ $ $ $ $ $ $ $ $ $ $ $ $ % s x l k l k k k k k k k l k k k k k "
};
