/* XPM */
static char *_8c70d869f3f4e43dc6a37ee911978691CuTXKZ0FtJxmvDP[] = {
/* columns rows colors chars-per-pixel */
"64 64 203 2 ",
"   c #070000",
".  c #0B0303",
"X  c #0E0807",
"o  c #0E0708",
"O  c #0E0909",
"+  c #110707",
"@  c #110907",
"#  c #110708",
"$  c #130B0A",
"%  c #1A0E0D",
"&  c #13100F",
"*  c #1B110E",
"=  c #131212",
"-  c #1C1312",
";  c #191B1D",
":  c #21140F",
">  c #231513",
",  c #271714",
"<  c #251914",
"1  c #2B1B14",
"2  c #251B1A",
"3  c #2B1C1B",
"4  c #311F15",
"5  c #341C1C",
"6  c #332117",
"7  c #352119",
"8  c #3B261B",
"9  c #3E281C",
"0  c #1C2223",
"q  c #2D2322",
"w  c #2A2829",
"e  c #332323",
"r  c #3B2424",
"t  c #352827",
"y  c #342A29",
"u  c #3C2B2B",
"i  c #293737",
"p  c #3C3231",
"a  c #442B1E",
"s  c #4B2E1E",
"d  c #4E301F",
"f  c #51311F",
"g  c #452D20",
"h  c #4A2E20",
"j  c #432C2C",
"k  c #4B2E2E",
"l  c #4D3121",
"z  c #44312F",
"x  c #553623",
"c  c #583724",
"v  c #5A3927",
"b  c #543729",
"n  c #553828",
"m  c #5C3B2A",
"M  c #453232",
"N  c #4C3434",
"B  c #433E3E",
"V  c #4C3C3B",
"C  c #503636",
"Z  c #533B3B",
"A  c #593C3B",
"S  c #653F3D",
"D  c #45413F",
"F  c #55413F",
"G  c #334344",
"H  c #384748",
"J  c #3F494B",
"K  c #3D4F53",
"L  c #454140",
"P  c #4D4242",
"I  c #414A4C",
"U  c #534342",
"Y  c #5C4343",
"T  c #534C4B",
"R  c #5B4848",
"E  c #46575A",
"W  c #595453",
"Q  c #5C5554",
"!  c #614545",
"~  c #664444",
"^  c #644C4C",
"/  c #694C4C",
"(  c #724D4D",
")  c #7B4F4E",
"_  c #74504F",
"`  c #654F50",
"'  c #625150",
"]  c #6B5554",
"[  c #645B5A",
"{  c #6C5C5C",
"}  c #725354",
"|  c #745857",
" . c #745C5B",
".. c #7A5B5B",
"X. c #4A6264",
"o. c #5B7779",
"O. c #6A6566",
"+. c #776564",
"@. c #7B6665",
"#. c #716D6D",
"$. c #7F6B6B",
"%. c #627476",
"&. c #747071",
"*. c #855B5B",
"=. c #80615F",
"-. c #815F60",
";. c #856363",
":. c #8B6464",
">. c #856B6A",
",. c #8B6A6A",
"<. c #986D6B",
"1. c #84716F",
"2. c #8C7474",
"3. c #8F7979",
"4. c #927171",
"5. c #997776",
"6. c #957B7A",
"7. c #A56E6D",
"8. c #A87574",
"9. c #A57D7D",
"0. c #AB7B7B",
"q. c #B27978",
"w. c #9B807F",
"e. c #5B7E80",
"r. c #697F82",
"t. c #618789",
"y. c #77888A",
"u. c #7EA9AD",
"i. c #878786",
"p. c #9A8484",
"a. c #9E8888",
"s. c #969596",
"d. c #9C9B9A",
"f. c #A48483",
"g. c #AC8483",
"h. c #A28A8A",
"j. c #AC8B8B",
"k. c #B18584",
"l. c #B38888",
"z. c #B48A89",
"x. c #B98C8A",
"c. c #AB9393",
"v. c #A59798",
"b. c #B59393",
"n. c #BC9393",
"m. c #BF9394",
"M. c #BC9997",
"N. c #B39A9B",
"B. c #BC9B9A",
"V. c #B9A09F",
"C. c #8DACAD",
"Z. c #99A5A7",
"A. c #82AEB3",
"S. c #8AAEB1",
"D. c #A8A9A9",
"F. c #BCA3A3",
"G. c #A7B2B5",
"H. c #B6B3B3",
"J. c #BCBCBD",
"K. c #C28C8B",
"L. c #C7908F",
"P. c #C19392",
"I. c #C59C9C",
"U. c #CC9A9A",
"Y. c #C3A5A4",
"T. c #CBA2A1",
"R. c #CFA8A7",
"E. c #C6AAA9",
"W. c #CCADAC",
"Q. c #D1A6A5",
"!. c #D4ABAB",
"~. c #D8ADAE",
"^. c #CDB0AF",
"/. c #D5B0AF",
"(. c #D8B1AF",
"). c #CCB1B1",
"_. c #D4B4B4",
"`. c #D9B3B3",
"'. c #D9B5B4",
"]. c #DBB6B5",
"[. c #D8B8B7",
"{. c #D7B9BA",
"}. c #DCBDBC",
"|. c #E0BEBD",
" X c #DEC0BF",
".X c #E0C1BF",
"XX c #92BEC3",
"oX c #9ABFC2",
"OX c #D0BFC0",
"+X c #95C1C6",
"@X c #9CC6CB",
"#X c #A2C6CA",
"$X c #BDC4C4",
"%X c #C3C3C4",
"&X c #CBCACB",
"*X c #DFC1C1",
"=X c #D7D6D6",
"-X c #E0C3C2",
";X c #E2C3C3",
":X c #E3C5C5",
">X c #E1E0DF",
",X c #E9E9E9",
"<X c gray97",
/* pixels */
"x x x x x x x x x x x x x x c c c x x x x x x x x x x x x x x x x x x x x x x x x x x x x x x x x x x x x s a s x x x x x x x x ",
"a s d x x x x x x x x x x x c c c c x x x x x x x l l l l l l l l l l l l l x x x x x x x x x x x x c c v l a s x x x x x x x x ",
"s l x x x x x x x x x x x x x c x x x x l h l l 8 $ . . . . . . . . . . . . * h x x x x x x x x x x x x m l a s x x x x x x x x ",
"x x x x x x x x x x x x x x c c x x x x x a 1 > $                             $ > < a x x x x x x x x x l a a f x x x x x x x x ",
"x x x x x x x x x x x x x x x x x x x x h -     . @ $ $ $ $ $ $ $ $ $ $ $ $ +       > l x x x x x x x x x h s x x x x x x x d a ",
"x x x x x x x x x x x x x x x x x l 1 * * .   . 3 A / / / / / / / / / / / ^ N -     . * : 6 x x x x x v m x h x x x x x x x l a ",
"x x x x x x x x x x x x x x x x l 7 .   . % 3 e Y 9.m.m.m.m.m.m.m.m.m.m.m.n.4.V 3 3 %     X 7 l l d l l b l d x x x x x x x x x ",
"x x x x x c c x x x c c x x x l < .     $ Z ,.6.c.W.'.'.'.'.'.'.'.'.'.'.'.'.Y.h.3.;.M .     X 1 l l l l h a l x x x x c c c x c ",
"x x x x x x x x x x x x x x h < o % e u Z 4.T._.}.-X-X-X-X-X-X-X-X-X-X-X-X-X*X}._.I.>.V u e $ . 3 b m m x a a l x x x x x x x x ",
"h h l l l l l l l l l l l a * . . r ,.j.B.).}.-X:X:X:X:X:X:X:X:X:X:X:X:X:X:X:X:X-X}.W.B.g.=.3   . < x m x a a a h l l l l l l l ",
"x x x x x x x x x x x x a - . $ j ..m.`.*X-X:X:X:X:X:X:X:X:X:X:X:X:X:X:X:X:X:X:X:X:X:X}._.b.| r + X < l x l l l x x x x x x x x ",
"x x x x x x x x x x x h < . @ 3 :.I.'.-X:X:X:X:X:X:X:X:X:X:X:X:X:X:X:X:X:X:X:X:X:X:X:X:X-X'.m...< + . 1 l x x x x x x x x x x x ",
"x x x x x x x x x x h < . % M =.n.'.-X:X:X:X:X:X:X:X:X:X:X:X:X:X:X:X:X:X:X:X:X:X:X:X:X:X:X.X_.z.| u . . < l x x x x x x x x x x ",
"x x x x x x l a a a 7     < | I.'.-X:X:X:X:X:X:X:X:X:X:X:X:X:X:X:X:X:X:X:X:X:X:X:X:X:X:X:X:X-X_.m.! o   . 9 x x x x x x x x x x ",
"x x x x x x l s a 8 <     2 >.'..X:X:X:X:X:X:X:X:X:X:X:X:X:X:X:X:X:X:X:X:X:X:X:X:X:X:X:X:X:X:X}.W.] $     4 x x x x x x x x x x ",
"x x x x x x x x x 8 $ . 2 Y f.*X:X:X:X:X:X:X:X:X:X:X:X:X:X:X:X:X:X:X:X:X:X:X:X:X:X:X:X:X:X:X:X:X}.3.M -   % a x x x x x x x x f ",
"x x x x x x x x l :   % Y g.R.:X:X:X:X:X:X:X:X:X:X:X:X:X:X:X:X:X:X:X:X:X:X:X:X:X:X:X:X:X:X:X:X:X-XY.5.z .   > l x x x x x s s s ",
"x x x x x x x x a @   - ] T.'.:X:X:X:X:X:X:X:X:X:X:X:X:X:X:X:X:X:X:X:X:X:X:X:X:X:X:X:X:X:X:X:X:X-X_.b.Z $   $ s x x x s s a a s ",
"x x x x x x x x a .   > @.[.-X:X:X:X:X:X:X:X:X:X:X:X:X:X:X:X:X:X:X:X:X:X:X:X:X:X:X:X:X:X:X:X:X:X:X-XY.^ %   @ a x x x f s s s l ",
"c c c c c c x a * . 3 ^ j.}.:X:X:X:X:X:X:X:X:X:X:X:X:X:X:X:X:X:X:X:X:X:X:X:X:X:X:X:X:X:X:X:X:X:X:X:X_.6.Y < . * a x x x x x x x ",
"x x x x x x x 1   + M 9.!..X.X}.W.F.F.F.F.Y.E.[.-X:X:X:X:X:X:X:X:X:X:X:X:X:X-X}._.Y.F.F.F.F.F.W.}.-X}.T.5.r . . 7 x x x x x x x ",
"l l l l s s s <   $ C k.`.|.`.B.@.U U U U U ] j._..X:X:X:X:X:X:X:X:X:X:X:X:X}.!.f.^ R U U U R >.Y.'.|.Q.9.u . . 4 s s s d s s s ",
"x x x x x x s ,   $ C l.`._.b.,.{ W T p % $ 3 | j.[.:X:X:X:X:X:X:X:X:X:X:X-XW.f.@.Q W T q $ $ M ,.B.}.Q.9.u .   6 x x x x x f x ",
"x x x x x x l 1   $ C l.`.E.@.V s.&X%X&.=   . 3 ] Y.:X:X:X:X:X:X:X:X:X:X:X}.c.R { J.&XH.T .   $ r 2.[.Q.9.u .   4 x x x x x x x ",
"x x x x x x l 1   $ N k.Q.M.` y D.<X,Xi.-     $ U F.-X:X:X:X:X:X:X:X:X:X:X}.h.p [ ,X<X=X[ o     % ..R.Q.9.u .   7 x x x x x x x ",
"x x x x x x x 1   $ N g.U.l.! y D.,X>Xi.-     $ U F.-X:X}.{.{.{.{.{.{.*X:X}.a.u Q =X,X=XQ o     % } I.U.9.u .   7 x x x x x x x ",
"x x x x x x x 4   + k 8.L.k.Y - T &.O.B $     $ U F.-X}.h.] ] ] ] ]  .c.*X}.a.u y O.&.O.y .     % } P.K.<.r .   8 x x x x x x x ",
"x x x x x x x 8 . . r *.q.g.Y . $ % % o       $ F N.).N.' % % % % % - { F.).a.y o % % % .       % } K.8.) 3 . $ a x x x x x x x ",
"x x x x x x x s 1 . % j :.9.Y .               $ U c.p.U 3           . q ' c.a.y .               % ] k.( r $ . 7 x x x x x x x x ",
"x x x x x x x x 8 .   > ( 0.} e %           + e  .N.$.2 y D D L L L B q y p.c.R 3 .           * u *.0.Z %   $ a x x x l h l l l ",
"c c x x x x x x a $   % S q.0.:.r           - | b.E.@.2 #.&X&X&X&X&XJ.[ q p.R.g./ $           j <.q.7.k .   % l x x x x x x x x ",
"x x x x x x x x x 1 . # r ) 8.z.O.J J J I P ^ j./.^.@.- W d.d.d.d.d.s.P q a.}.!.f.Y P J J J I +.x.<.~ 5   # 7 x x x x x x x x x ",
"x x x x x x x x x s <   $ e *.B.Z.S.S.S.C.v.n._.-X_.$.2 2 y y y y y y 2 y h.*X|.!.n.d.C.S.S.S.D.n._ > +   1 h x x x d l d l d d ",
"x x x x x l x x x x 7     > ( x.G.@X@X@X#XJ.'. X:X}.c.$.+.+.+.+.+.+.+.@.2.Y.-X:X}._.J.@X@X@X@XD.k.A .     8 x d s s s a s s d x ",
"x x x x x x x x x x a $   % A <.Z.+X@X@X#X%X-X-X:X:X}._._._._._._._._._.{.OX:X:X:X-X$X@X@X@XXXs.:.k .   $ s x x f d s a s f x x ",
"x x x x x x x c x x x 8 $ . , V r.A.+X@X#X%X:X:X:X:X:X:X:X:X:X:X:X:X:X:X:X:X:X:X:X:X$X@X@XXXu.%.z >   % 9 x x x x x s a d f x x ",
"x x x x x x c c x x x x 8 o . - K t.A.XX#XOX}.-X:X:X:X:X:X:X:X:X:X:X:X:X:X:X:X:X*X}.$X@XXXu.o.H & . $ 9 x x x x x x l a s x x x ",
"x x x x x x c c x x x x s 7 o . = G t.A.oXH.Q.}.:X:X:X:X:X:X:X:X:X:X:X:X:X:X:X:X}.R.H.oXu.e.i = . $ a x x x x x x x l a s x x x ",
"x x x x x c c c x x x x x x 8 $ . ; H X.%.i.N.W.'.-X:X:X:X:X:X:X:X:X:X:X:X:X}.'.E.v.y.o.X.G = . % 7 x x x x x x x d a a d x x x ",
"x x x x x x c c x x x x x x x a $ . O = ; E y.c.T.'.}..X-X-X-X-X-X-X-X-X.X}./.I.h.y.I ; & o . % a x x x x x x x x x a 9 s x x x ",
"x x x x x x x x x x x x x x x x 9 $     . w H R ;.x.T.!.~.~.~.~.~.~.~.!.Q.U.9.| U G 0 .     % 9 x x x x x x x x x x s 9 a x x x ",
"x x x x x x x x x x x x x x x x x 8 @     o = - k *.0.k.l.l.l.l.l.l.z.l.k.7._ r - & O     $ 9 x x x x x x x x x x x s 8 a x x x ",
"x x x x x x x x x x x x x x x x x x 8 :         % r N C C C C C C C C C N k 5 #         : 8 x x x x x x x x x v v m x 9 a s x x ",
"x x x x x x x x x x x x l l x x x x a % . 2 u u e % $ $ $ $ $ $ $ $ $ $ $ $ > y u t < . * a x x x x x x x x x v m m n a a s x x ",
"x x x x x x x x x x m n h a a s s 7 %   % ! 9.j.@.3                       o u 3.j.9.A $ . % g x x x x x x x x x x x x l l x x x ",
"x x x x x x x x v v m m l 9 a s 7 $ . 3 Y 6.!.[.b.] A A A Z Z Z Z Z Z Z Z Y @.Y.'.R.4.C < . * 8 x x x x x x x x x x x x x x x x ",
"x x x x x x x x x x x x l 9 a a *   $ A g.R.}.{.R.m.z.x.x.x.x.x.x.x.x.x.x.x.B.W.}.}.T.9.M .   * l x x x x x x x x x x x x x x x ",
"x x x x x x x x x x x x h a h a $   $ ! m.`.).6.2.m.Q.~.(.`.`.`.`.`.`.(.!.T.l.>.p.{.!.z.C .   $ a g g g g g g l x x x x x x x x ",
"x f x x x x x x x x x x a 9 9 8 $   $ ! P._.F.R A k./..X-X-X-X-X-X-X-X-X}.R.5.z ' ).!.z.C .   * h g a a a a s x x x x x x x x x ",
"f x x x x x x x x x x l a 9 a 8 $   $ ! m./.F.V V b.}.:X:X:X-X-X-X:X:X:X-X_.w.u R W.!.z.C .   * l x x x x x x x x x x x x x x x ",
"x x x x x x x x x l a h a a s l 1 . $ M ;.6.1.u P V.-X:X}._.N.h.h.B.[. X:X}.a.u M 6.6.-.r . $ 6 x x x x x x x x x x x x x x x x ",
"x x x x x x x x x x x c l a d x s 1 . % 3 3 3 - U F.-X-X`.m.^ t y | I.'.:X}.a.y % 3 3 < $ X 8 l x x x x x x x x x x x x x x x x ",
"x x x x x x x x x x x c l a g s l s < .       $ P F.-X-X'.B.V o $ Y P.`.:X}.a.y .       $ 1 x x x x x x x x x x x x x x x x x x ",
"x x x x x x x x x x x x l a s l x x s 1       o V N.}.:X-XE.U . $ A P.`.-X{.p.t       . 7 l x x x x x x x x x x x x x x x x x x ",
"x x x x x x x x x d d s a a x x x x x s 1 .   . q { c.OX:XE.U . $ F P.`._.p.R <     $ 1 a l s s d s x x x x x x x x x x x x x x ",
"x l h s s s s s s s a a 9 a l x x x x f a < .   . 2 ] N.F.c.M . + N 9.b.h.P - .   . 1 a h h h h h s s h h x x x x x x x x x x x ",
"m l a s s s h s x x l l l x x x x x x l l a 1 .   . q U R V <     < N Z V <     . 6 s x x m b m m c x x x x x x x x x x x x x x ",
"m l s s l x x x x x x x x x x x x x x x x x s < .   . $ $ $ . . . . $ $ $     @ 1 x x x x c l m v x x x x x x x x x x x x x x x ",
"l g h x x x x x x x x x x x x x x x x x x x x l 4 .         > 9 9 >         $ 8 l x x x l l g x x x x x x x x x x x x x x x x x ",
"b l l x x x x x x x x x x x x x x x x x x x x x l 8 4 1 1 4 h x x s 4 1 1 4 a x x x x x x x g s d x x x x x x x x x x x x x x x ",
"l l l x x x x x x x x x c c x x x x x x x x x x x x x x x x x x x x x d d f x x x x x x x x a a a a a h a h l l x l l x x x x x ",
"m l l x x x x x x x x x x x x x x x x x x x x x x x x x x x x x x x x x x x x x x x x x x f a g a a g b x l l l x x l x x x x x ",
"m l l x x x x x x x x x x x h l x x x x x c c x x x x x c x x x x x x x x x x x x x x x x d l m x x x v c x x x x x x x x x x x ",
"m l l x x x c x x x x x x x x x x x x x c c c x x x x x c c x x x x x x x x x x x x x x x l l v c x c x x x x x x x c x x x x x "
};
